<?xml version="1.0" standalone="no"?>
<!DOCTYPE svg PUBLIC "-//W3C//DTD SVG 20010904//EN"
 "http://www.w3.org/TR/2001/REC-SVG-20010904/DTD/svg10.dtd">
<svg version="1.0" xmlns="http://www.w3.org/2000/svg"
 width="299.000000pt" height="168.000000pt" viewBox="0 0 299.000000 168.000000"
 preserveAspectRatio="xMidYMid meet">

<g transform="translate(0.000000,168.000000) scale(0.100000,-0.100000)"
fill="#000000" stroke="none">
<path d="M236 1055 c-4 -22 -26 -76 -48 -120 -62 -121 -56 -207 19 -276 15
-15 39 -32 53 -39 23 -11 22 -10 -7 21 -64 68 -72 158 -23 261 30 63 38 129
21 173 -6 16 -9 12 -15 -20z"/>
<path d="M1110 805 c0 -176 2 -205 15 -205 13 0 15 29 15 205 0 176 -2 205
-15 205 -13 0 -15 -29 -15 -205z"/>
<path d="M699 871 c-56 -44 -39 -103 39 -140 29 -13 54 -33 58 -43 9 -29 -5
-57 -33 -64 -31 -8 -54 4 -68 34 -11 25 -35 30 -35 8 0 -8 10 -27 23 -41 27
-32 83 -37 122 -11 36 24 35 86 -1 115 -14 11 -35 23 -47 27 -57 17 -74 63
-33 89 27 18 59 9 70 -20 7 -19 36 -20 36 -1 0 51 -86 82 -131 47z"/>
<path d="M1254 880 c-44 -18 -64 -58 -64 -131 0 -81 10 -112 46 -135 47 -31
144 -10 144 31 0 21 -16 19 -49 -6 -49 -36 -111 -1 -111 63 l0 28 85 0 85 0 0
46 c0 56 -12 79 -50 99 -32 17 -54 18 -86 5z m80 -41 c17 -14 26 -30 26 -50
l0 -29 -70 0 c-68 0 -70 1 -70 25 0 30 41 75 68 75 11 0 31 -9 46 -21z"/>
<path d="M1480 877 c-32 -16 -47 -58 -32 -91 6 -14 33 -36 61 -51 28 -14 55
-34 61 -45 24 -46 -41 -90 -80 -55 -11 10 -20 24 -20 32 0 7 -9 13 -20 13 -23
0 -23 0 -10 -35 12 -31 64 -55 103 -48 32 6 67 46 67 78 0 26 -30 55 -87 84
-51 25 -63 55 -35 83 25 25 71 17 79 -12 7 -26 33 -26 33 -1 0 24 -45 61 -74
61 -11 0 -32 -6 -46 -13z"/>
<path d="M900 860 c-21 -21 -27 -50 -10 -50 5 0 21 12 35 26 20 20 32 24 53
19 34 -8 42 -21 42 -67 l0 -38 -50 0 c-41 0 -56 -5 -75 -25 -61 -60 8 -156 89
-125 15 5 37 8 49 5 22 -6 22 -5 19 117 -4 146 -10 158 -84 158 -35 0 -54 -6
-68 -20z m120 -175 c0 -34 -5 -47 -19 -55 -46 -24 -101 1 -101 46 0 30 36 54
82 54 l38 0 0 -45z"/>
</g>
</svg>
