<?xml version="1.0" standalone="no"?>
<!DOCTYPE svg PUBLIC "-//W3C//DTD SVG 20010904//EN"
 "http://www.w3.org/TR/2001/REC-SVG-20010904/DTD/svg10.dtd">
<svg version="1.0" xmlns="http://www.w3.org/2000/svg"
 width="626.000000pt" height="417.000000pt" viewBox="0 0 626.000000 417.000000"
 preserveAspectRatio="xMidYMid meet">

<g transform="translate(0.000000,417.000000) scale(0.100000,-0.100000)"
fill="#000000" stroke="none">
<path d="M0 2085 l0 -2085 3130 0 3130 0 0 2085 0 2085 -3130 0 -3130 0 0
-2085z m4115 1694 c5 -5 -6 -4 -25 2 -45 15 -54 24 -15 15 17 -4 34 -12 40
-17z m-480 1 c-27 -12 -43 -12 -25 0 8 5 22 9 30 9 10 0 8 -3 -5 -9z m565 -30
c8 -5 12 -11 10 -14 -3 -2 -14 2 -24 10 -22 15 -10 19 14 4z m-661 -13 c-16
-13 -99 -57 -99 -53 0 7 83 56 94 56 5 0 7 -1 5 -3z m785 -62 c3 -9 10 -13 16
-10 5 3 21 -5 34 -18 14 -14 26 -23 28 -21 3 2 26 -18 52 -45 34 -34 44 -51
35 -56 -7 -5 -10 -4 -5 3 7 11 -27 36 -37 26 -3 -3 -8 0 -13 7 -4 8 -3 10 4 5
17 -11 15 9 -3 24 -8 7 -15 9 -15 5 0 -5 -8 -1 -18 8 -10 10 -21 15 -24 12 -3
-3 -22 13 -42 35 -34 37 -66 55 -50 28 4 -8 3 -10 -2 -5 -5 5 -9 13 -9 17 0 5
-9 16 -20 25 -13 11 -6 9 21 -4 23 -11 44 -27 48 -36z m-143 8 c13 -16 12 -17
-3 -4 -17 13 -22 21 -14 21 2 0 10 -8 17 -17z m64 -23 c24 -26 26 -30 10 -30
-10 0 -15 3 -12 7 4 3 -3 17 -15 30 -12 13 -19 23 -17 23 3 0 18 -13 34 -30z
m-821 -9 c-10 -10 -21 -17 -23 -15 -6 6 20 34 32 34 6 0 2 -8 -9 -19z m503 3
c-3 -3 -12 -4 -19 -1 -8 3 -5 6 6 6 11 1 17 -2 13 -5z m93 -14 c0 -5 -5 -10
-11 -10 -5 0 -7 5 -4 10 3 6 8 10 11 10 2 0 4 -4 4 -10z m-646 -30 c-9 -16
-20 -32 -25 -35 -5 -4 -7 -10 -4 -15 3 -5 0 -12 -6 -16 -7 -4 -9 -3 -5 4 3 5
1 12 -5 14 -7 2 2 19 21 41 39 45 43 46 24 7z m727 7 c-10 -9 -11 -8 -5 6 3
10 9 15 12 12 3 -3 0 -11 -7 -18z m-137 -2 c3 -8 1 -15 -4 -15 -6 0 -10 7 -10
15 0 8 2 15 4 15 2 0 6 -7 10 -15z m391 -5 c10 -11 16 -20 13 -20 -3 0 -13 9
-23 20 -10 11 -16 20 -13 20 3 0 13 -9 23 -20z m-712 -17 c-7 -2 -19 -2 -25 0
-7 3 -2 5 12 5 14 0 19 -2 13 -5z m725 -48 c-3 -3 -9 2 -12 12 -6 14 -5 15 5
6 7 -7 10 -15 7 -18z m-1054 -16 c-3 -5 -9 -7 -14 -4 -4 3 -11 -2 -14 -11 -4
-9 -9 -14 -13 -10 -9 8 28 47 38 40 5 -3 7 -10 3 -15z m866 6 c-7 -8 -17 -15
-23 -15 -6 0 -2 7 9 15 25 19 30 19 14 0z m-552 -2 c-10 -2 -26 -2 -35 0 -10
3 -2 5 17 5 19 0 27 -2 18 -5z m886 -21 c3 -5 -1 -9 -9 -9 -8 0 -12 4 -9 9 3
4 7 8 9 8 2 0 6 -4 9 -8z m-294 -6 c0 -2 -8 -10 -17 -17 -16 -13 -17 -12 -4 4
13 16 21 21 21 13z m-45 -36 c10 -11 16 -20 13 -20 -3 0 -13 9 -23 20 -10 11
-16 20 -13 20 3 0 13 -9 23 -20z m260 10 c3 -6 -1 -7 -9 -4 -18 7 -21 14 -7
14 6 0 13 -4 16 -10z m-1182 -22 c-18 -20 -26 -19 -18 4 3 8 12 15 20 15 13 0
12 -4 -2 -19z m470 15 c-7 -2 -19 -2 -25 0 -7 3 -2 5 12 5 14 0 19 -2 13 -5z
m502 -21 c-3 -3 -11 0 -18 7 -9 10 -8 11 6 5 10 -3 15 -9 12 -12z m-787 1
c-10 -2 -26 -2 -35 0 -10 3 -2 5 17 5 19 0 27 -2 18 -5z m445 0 c-7 -2 -19 -2
-25 0 -7 3 -2 5 12 5 14 0 19 -2 13 -5z m692 -22 c9 -19 11 -32 5 -36 -6 -3
-10 2 -10 12 0 15 -2 16 -10 3 -8 -11 -9 -7 -4 15 4 23 3 26 -5 15 -6 -8 -11
-10 -11 -4 0 10 9 24 16 24 2 0 10 -13 19 -29z m-390 1 c-3 -3 -11 0 -18 7 -9
10 -8 11 6 5 10 -3 15 -9 12 -12z m228 1 c-13 -2 -33 -2 -45 0 -13 2 -3 4 22
4 25 0 35 -2 23 -4z m-156 -19 c-3 -3 -12 -4 -19 -1 -8 3 -5 6 6 6 11 1 17 -2
13 -5z m-1023 -26 c-3 -5 -10 -6 -15 -2 -5 3 -14 -9 -20 -26 -6 -17 -13 -29
-15 -27 -2 2 1 18 7 35 7 20 17 30 29 29 10 -1 16 -5 14 -9z m283 6 c-3 -3
-12 -4 -19 -1 -8 3 -5 6 6 6 11 1 17 -2 13 -5z m-74 -11 c-7 -2 -19 -2 -25 0
-7 3 -2 5 12 5 14 0 19 -2 13 -5z m1150 -13 c-3 -12 -8 -19 -11 -16 -5 6 5 36
12 36 2 0 2 -9 -1 -20z m-1301 -12 c-4 -16 -2 -19 8 -13 9 6 11 4 5 -4 -10
-18 -29 3 -22 23 9 24 16 19 9 -6z m381 15 c-7 -2 -19 -2 -25 0 -7 3 -2 5 12
5 14 0 19 -2 13 -5z m354 1 c-3 -3 -12 -4 -19 -1 -8 3 -5 6 6 6 11 1 17 -2 13
-5z m331 -1 c-10 -2 -26 -2 -35 0 -10 3 -2 5 17 5 19 0 27 -2 18 -5z m209 -15
c-3 -8 -6 -5 -6 6 -1 11 2 17 5 13 3 -3 4 -12 1 -19z m-1204 -5 c-7 -2 -19 -2
-25 0 -7 3 -2 5 12 5 14 0 19 -2 13 -5z m324 -19 c-3 -3 -12 -4 -19 -1 -8 3
-5 6 6 6 11 1 17 -2 13 -5z m40 0 c-3 -3 -12 -4 -19 -1 -8 3 -5 6 6 6 11 1 17
-2 13 -5z m220 0 c-3 -3 -12 -4 -19 -1 -8 3 -5 6 6 6 11 1 17 -2 13 -5z m-192
-13 c3 -5 2 -12 -3 -15 -5 -3 -9 1 -9 9 0 17 3 19 12 6z m884 -36 c0 -5 -4 -3
-9 5 -5 8 -9 22 -9 30 0 16 17 -16 18 -35z m-1455 20 c-4 -8 -8 -15 -10 -15
-2 0 -4 7 -4 15 0 8 4 15 10 15 5 0 7 -7 4 -15z m1129 8 c-7 -2 -19 -2 -25 0
-7 3 -2 5 12 5 14 0 19 -2 13 -5z m-1013 -7 c0 -2 -6 -9 -14 -15 -11 -9 -16
-9 -22 0 -4 7 -3 9 4 5 6 -3 13 -2 17 4 6 10 15 14 15 6z m1237 -38 c-3 -7 -5
-2 -5 12 0 14 2 19 5 13 2 -7 2 -19 0 -25z m20 0 c-3 -7 -5 -2 -5 12 0 14 2
19 5 13 2 -7 2 -19 0 -25z m-1357 18 c0 -2 -6 -9 -14 -15 -11 -9 -16 -9 -22 0
-4 7 -3 9 4 5 6 -3 13 -2 17 4 6 10 15 14 15 6z m448 -3 c-10 -2 -26 -2 -35 0
-10 3 -2 5 17 5 19 0 27 -2 18 -5z m929 -30 c-3 -10 -5 -4 -5 12 0 17 2 24 5
18 2 -7 2 -21 0 -30z m-750 21 c-3 -3 -12 -4 -19 -1 -8 3 -5 6 6 6 11 1 17 -2
13 -5z m150 0 c-3 -3 -12 -4 -19 -1 -8 3 -5 6 6 6 11 1 17 -2 13 -5z m540 -16
c-3 -8 -6 -5 -6 6 -1 11 2 17 5 13 3 -3 4 -12 1 -19z m-1164 5 c-7 -2 -21 -2
-30 0 -10 3 -4 5 12 5 17 0 24 -2 18 -5z m930 0 c-7 -2 -19 -2 -25 0 -7 3 -2
5 12 5 14 0 19 -2 13 -5z m364 -55 c-2 -13 -4 -5 -4 17 -1 22 1 32 4 23 2 -10
2 -28 0 -40z m-35 14 c3 -21 0 -28 -13 -29 -11 -1 -16 4 -13 13 2 8 6 21 9 29
7 22 12 18 17 -13z m-955 12 c-3 -3 -12 -4 -19 -1 -8 3 -5 6 6 6 11 1 17 -2
13 -5z m970 -16 c-3 -8 -6 -5 -6 6 -1 11 2 17 5 13 3 -3 4 -12 1 -19z m-1447
7 c0 -2 -6 -8 -13 -14 -10 -8 -14 -7 -14 2 0 8 6 14 14 14 7 0 13 -1 13 -2z
m257 -1 c-3 -3 -12 -4 -19 -1 -8 3 -5 6 6 6 11 1 17 -2 13 -5z m521 -1 c-27
-2 -69 -2 -95 0 -27 2 -5 3 47 3 52 0 74 -1 48 -3z m-590 -10 c-10 -2 -28 -2
-40 0 -13 2 -5 4 17 4 22 1 32 -1 23 -4z m689 1 c-3 -3 -12 -4 -19 -1 -8 3 -5
6 6 6 11 1 17 -2 13 -5z m256 -11 c-7 -2 -19 -2 -25 0 -7 3 -2 5 12 5 14 0 19
-2 13 -5z m257 -5 c0 -4 -4 -8 -9 -8 -6 0 -12 4 -15 8 -3 5 1 9 9 9 8 0 15 -4
15 -9z m-1427 -60 c-8 -23 -12 -53 -10 -66 2 -12 1 -25 -3 -27 -4 -2 -5 -17
-2 -31 3 -19 1 -25 -7 -20 -6 4 -11 1 -11 -8 0 -9 6 -16 13 -16 8 0 7 -4 -3
-10 -13 -9 -13 -11 0 -21 13 -9 12 -10 -2 -5 -12 3 -18 0 -18 -9 0 -8 5 -15
11 -15 8 0 10 -14 6 -42 -5 -40 -5 -42 9 -23 8 11 13 30 11 43 -2 12 0 22 4
22 5 0 10 -12 10 -27 2 -25 2 -24 9 7 6 28 8 30 9 10 1 -14 4 -36 6 -50 5 -22
4 -22 -4 -5 l-10 20 -1 -20 c-1 -20 -2 -20 -9 -1 -8 20 -8 20 -13 0 -4 -17 0
-20 28 -20 30 0 33 3 28 26 l-4 25 10 -24 c6 -13 12 -22 13 -20 7 10 -6 118
-14 113 -5 -3 -9 0 -9 5 0 6 7 11 15 11 11 0 15 -13 15 -52 0 -55 19 -107 21
-58 1 22 2 21 10 -7 13 -46 17 -41 11 12 -2 25 -2 45 2 45 11 0 66 -30 66 -36
0 -2 -13 2 -30 11 -30 15 -30 15 -30 -12 0 -35 19 -69 21 -38 1 11 1 23 0 27
0 4 5 5 13 2 8 -3 17 -22 21 -42 5 -25 9 -32 14 -21 5 14 10 14 36 2 28 -13
28 -14 4 -9 -19 4 -29 1 -33 -11 -4 -9 -4 -18 -1 -21 3 -3 5 0 5 7 0 7 5 9 12
5 7 -5 26 -7 43 -6 30 1 30 1 5 -10 -23 -9 -24 -11 -5 -17 19 -8 19 -8 0 -19
-18 -11 -16 -12 10 -6 19 4 25 2 17 -3 -7 -6 -10 -17 -6 -26 4 -13 23 -17 82
-19 51 -2 76 -7 78 -16 1 -7 0 -8 -3 -2 -3 6 -37 9 -81 8 l-77 -2 70 -5 70 -5
-69 -6 c-61 -4 -69 -7 -72 -27 -3 -16 4 -24 24 -32 l27 -11 -26 5 c-19 3 -29
0 -33 -12 -9 -21 8 -31 42 -25 15 3 24 1 20 -3 -4 -4 -23 -7 -42 -7 -20 0 -36
-4 -36 -9 0 -13 57 -11 82 2 11 6 21 9 23 7 4 -4 -67 -41 -100 -53 -19 -7 -19
-7 3 -16 12 -5 21 -16 21 -26 -1 -17 -2 -17 -6 0 -2 9 -8 17 -13 17 -5 0 -7
-8 -4 -17 5 -15 4 -15 -6 1 -18 27 -31 1 -24 -45 4 -21 1 -46 -6 -59 -10 -18
-9 -21 2 -18 7 3 16 24 20 49 6 42 6 41 5 -13 -1 -31 2 -56 8 -55 5 1 9 -3 10
-10 0 -6 4 -15 8 -20 5 -4 8 -3 6 2 -1 6 3 21 9 35 8 18 11 20 11 8 1 -21 21
-23 41 -5 8 6 7 3 -3 -9 -17 -20 -16 -20 12 -16 28 4 28 5 15 30 -8 15 -14 50
-14 77 0 72 -8 94 -30 88 -11 -3 -21 -11 -23 -19 -4 -11 -5 -10 -3 1 0 9 17
26 35 38 20 12 31 15 26 8 -6 -11 -4 -13 8 -8 12 4 14 2 10 -11 -6 -15 -5 -16
13 -2 12 9 15 9 7 1 -8 -10 -9 -18 -1 -31 8 -12 8 -25 0 -46 l-10 -29 -1 36
c-1 19 -8 44 -17 55 -15 19 -16 19 -8 -1 4 -11 6 -45 5 -75 -1 -33 3 -62 12
-74 12 -16 13 -15 11 15 -1 19 1 24 3 12 5 -28 26 -45 46 -37 13 5 13 9 1 32
-7 15 -11 35 -8 45 3 9 1 17 -5 17 -14 0 -14 -45 -1 -71 6 -11 7 -19 1 -19
-21 0 -30 87 -10 107 8 8 8 17 0 31 -7 14 -8 23 -1 27 6 4 8 11 5 16 -3 5 2 6
11 2 12 -5 15 -3 9 6 -6 10 -3 11 14 2 25 -14 28 -23 4 -14 -11 4 -14 3 -9 -5
5 -8 1 -10 -11 -6 -17 5 -17 5 0 -9 9 -8 17 -20 17 -28 0 -8 -6 -6 -15 7 -8
10 -15 14 -15 8 0 -5 14 -23 31 -40 17 -16 35 -40 40 -53 10 -24 2 -88 -9 -77
-10 10 -52 -36 -53 -58 -1 -18 -2 -18 -9 4 -7 21 -8 22 -10 5 l-1 -20 -9 20
c-6 14 -9 16 -10 5 -2 -8 -2 -18 -1 -22 0 -5 -4 -8 -10 -8 -6 0 -8 7 -5 16 4
10 2 14 -6 11 -7 -2 -12 -10 -11 -16 4 -15 -10 -14 -26 2 -11 10 -12 9 -7 -1
6 -10 -3 -12 -38 -11 -26 2 -52 -3 -58 -9 -9 -9 -6 -12 13 -13 l24 -1 -25 -7
c-16 -5 6 -8 58 -8 45 0 85 4 88 8 3 5 -7 10 -23 10 -18 1 -22 3 -10 6 10 3
25 2 34 -1 12 -5 13 -9 3 -21 -8 -10 -33 -14 -78 -15 -37 0 -75 -1 -84 -1 -26
0 -22 -19 5 -20 17 -1 18 -2 4 -6 -10 -3 -24 1 -32 7 -8 7 -15 9 -15 4 0 -18
16 -30 40 -31 64 -3 69 -6 54 -27 -16 -24 -18 -36 -5 -36 5 0 15 16 22 35 7
19 17 35 21 35 14 0 9 -21 -14 -59 l-21 -36 26 24 c15 14 27 33 27 43 0 10 4
18 9 18 15 0 -7 -63 -26 -77 -9 -7 -12 -13 -6 -13 11 0 37 27 47 50 3 8 4 4 0
-10 -3 -14 -6 -31 -6 -37 -1 -13 -8 -16 -39 -16 -13 0 -16 -8 -13 -41 l3 -41
-8 38 c-11 51 -20 57 -16 10 1 -21 0 -26 -2 -11 -2 14 -11 32 -19 39 -13 10
-13 8 -4 -16 7 -20 8 -37 1 -58 -6 -16 -8 -34 -4 -40 3 -6 1 -7 -5 -3 -7 4
-12 2 -12 -3 0 -6 -5 -11 -10 -11 -18 0 -23 30 -10 56 11 19 11 29 1 50 -6 15
-9 29 -7 32 3 2 11 -7 17 -22 10 -21 10 -34 0 -62 -18 -49 -6 -55 14 -8 15 36
15 41 0 71 -11 20 -24 31 -36 30 -22 -1 -22 -2 -8 -28 11 -22 3 -99 -10 -99
-5 0 -6 11 -4 24 3 16 -1 25 -13 30 -14 5 -15 4 -5 -8 9 -10 9 -16 1 -21 -8
-5 -8 -10 0 -20 8 -10 8 -15 0 -20 -8 -5 -8 -11 0 -20 7 -8 9 -19 6 -24 -4 -5
-1 -13 5 -17 8 -5 9 -3 4 7 -6 11 -5 11 4 3 7 -6 11 -27 9 -45 l-4 -34 -28 60
c-25 52 -33 81 -38 143 -1 6 -6 12 -11 12 -5 0 -6 -12 -3 -27 5 -23 4 -25 -4
-10 -6 9 -8 26 -5 37 4 14 2 20 -9 20 -23 0 -40 36 -20 44 13 5 14 9 4 21 -7
8 -14 28 -15 45 -2 23 4 35 31 55 30 23 34 32 36 73 1 37 2 40 5 15 2 -18 8
-33 13 -33 5 0 6 8 3 17 -5 12 -2 15 10 10 9 -3 17 -2 17 2 0 5 -6 11 -14 14
-8 3 -16 24 -18 49 -3 24 -8 52 -12 63 -6 16 -6 17 3 5 9 -13 11 -13 12 0 1 8
1 20 0 26 -1 6 10 19 25 29 14 9 23 19 20 22 -3 4 1 15 11 25 9 10 13 18 9 18
-4 0 -4 6 0 12 14 21 11 48 -5 61 -12 9 -13 9 -7 0 5 -9 2 -11 -9 -6 -13 5
-14 7 -3 14 9 6 3 10 -19 15 -19 4 -33 13 -33 21 0 10 12 7 45 -13 25 -14 45
-24 46 -22 1 1 2 21 3 43 1 22 5 47 10 55 4 8 0 6 -8 -4 -14 -18 -21 -46 -17
-69 1 -5 -3 -5 -9 -2 -6 4 -9 12 -7 19 2 6 7 22 11 36 7 24 6 24 -8 6 -10 -12
-23 -17 -36 -13 -11 3 -18 1 -14 -4 3 -5 1 -9 -5 -9 -5 0 -12 10 -14 23 -3 12
-5 -4 -4 -36 1 -31 -1 -57 -5 -57 -5 0 -9 28 -10 63 -1 36 -5 10 -8 -63 l-6
-125 -3 125 c-3 90 -6 114 -11 85 -5 -30 -8 -33 -10 -15 l-2 25 -8 -25 -8 -25
-2 25 -2 25 -8 -25 c-8 -25 -8 -25 -11 5 l-2 30 -5 -30 -5 -30 -8 25 -7 25 -7
-23 -8 -23 -18 28 c-21 31 -25 25 -8 -10 7 -16 2 -13 -19 9 -28 30 -30 38 -36
140 -6 84 -4 122 8 164 9 30 28 103 43 162 15 59 30 105 34 102 4 -2 0 -23 -8
-46z m534 46 c-3 -3 -12 -4 -19 -1 -8 3 -5 6 6 6 11 1 17 -2 13 -5z m-64 -11
c-7 -2 -21 -2 -30 0 -10 3 -4 5 12 5 17 0 24 -2 18 -5z m240 0 c-7 -2 -21 -2
-30 0 -10 3 -4 5 12 5 17 0 24 -2 18 -5z m170 0 c-7 -2 -21 -2 -30 0 -10 3 -4
5 12 5 17 0 24 -2 18 -5z m-680 -10 c-7 -2 -21 -2 -30 0 -10 3 -4 5 12 5 17 0
24 -2 18 -5z m105 0 c-15 -2 -42 -2 -60 0 -18 2 -6 4 27 4 33 0 48 -2 33 -4z
m1211 -37 c-9 -8 -10 -7 -5 7 3 10 7 24 7 30 1 7 3 4 6 -7 3 -10 -1 -23 -8
-30z m-3139 -22 c0 -43 18 -45 22 -1 4 38 22 39 26 0 2 -15 11 -33 20 -39 24
-18 9 -27 -48 -29 -27 -1 -53 -5 -57 -8 -10 -11 -43 -8 -43 3 0 6 -9 10 -20
10 -22 0 -27 16 -7 23 6 2 12 17 12 33 0 19 6 30 18 32 13 3 17 -3 17 -27 0
-16 5 -33 10 -36 6 -4 10 9 10 33 0 43 6 53 26 45 8 -3 14 -19 14 -39z m2797
40 c-3 -3 -12 -4 -19 -1 -8 3 -5 6 6 6 11 1 17 -2 13 -5z m236 -1 c-7 -2 -19
-2 -25 0 -7 3 -2 5 12 5 14 0 19 -2 13 -5z m-536 -28 c1 -15 1 -16 -3 -3 -4
14 -21 18 -92 21 l-87 3 90 0 c82 -1 90 -3 92 -21z m-390 9 c-3 -3 -12 -4 -19
-1 -8 3 -5 6 6 6 11 1 17 -2 13 -5z m160 0 c-3 -3 -12 -4 -19 -1 -8 3 -5 6 6
6 11 1 17 -2 13 -5z m-460 -10 c-3 -3 -12 -4 -19 -1 -8 3 -5 6 6 6 11 1 17 -2
13 -5z m211 -1 c-16 -2 -40 -2 -55 0 -16 2 -3 4 27 4 30 0 43 -2 28 -4z m559
-15 c-3 -8 -6 -5 -6 6 -1 11 2 17 5 13 3 -3 4 -12 1 -19z m40 -10 c-3 -7 -5
-2 -5 12 0 14 2 19 5 13 2 -7 2 -19 0 -25z m40 -5 c-3 -10 -5 -4 -5 12 0 17 2
24 5 18 2 -7 2 -21 0 -30z m73 27 c8 -5 11 -10 5 -10 -5 0 -17 5 -25 10 -8 5
-10 10 -5 10 6 0 17 -5 25 -10z m-357 -17 c-13 -2 -33 -2 -45 0 -13 2 -3 4 22
4 25 0 35 -2 23 -4z m84 1 c-3 -3 -12 -4 -19 -1 -8 3 -5 6 6 6 11 1 17 -2 13
-5z m-190 -10 c-3 -3 -12 -4 -19 -1 -8 3 -5 6 6 6 11 1 17 -2 13 -5z m811 -1
c-15 -2 -42 -2 -60 0 -18 2 -6 4 27 4 33 0 48 -2 33 -4z m-591 -25 c-3 -8 -6
-5 -6 6 -1 11 2 17 5 13 3 -3 4 -12 1 -19z m40 0 c-3 -8 -6 -5 -6 6 -1 11 2
17 5 13 3 -3 4 -12 1 -19z m440 -10 c-3 -7 -5 -2 -5 12 0 14 2 19 5 13 2 -7 2
-19 0 -25z m-1304 15 c-7 -2 -19 -2 -25 0 -7 3 -2 5 12 5 14 0 19 -2 13 -5z
m740 0 c-7 -2 -19 -2 -25 0 -7 3 -2 5 12 5 14 0 19 -2 13 -5z m44 -15 c-3 -8
-6 -5 -6 6 -1 11 2 17 5 13 3 -3 4 -12 1 -19z m120 0 c-3 -8 -6 -5 -6 6 -1 11
2 17 5 13 3 -3 4 -12 1 -19z m147 14 c3 -5 -1 -9 -9 -9 -8 0 -15 4 -15 9 0 4
4 8 9 8 6 0 12 -4 15 -8z m-806 -9 c-10 -2 -26 -2 -35 0 -10 3 -2 5 17 5 19 0
27 -2 18 -5z m405 0 c-7 -2 -19 -2 -25 0 -7 3 -2 5 12 5 14 0 19 -2 13 -5z
m294 -15 c-3 -8 -6 -5 -6 6 -1 11 2 17 5 13 3 -3 4 -12 1 -19z m-350 6 c-3 -3
-12 -4 -19 -1 -8 3 -5 6 6 6 11 1 17 -2 13 -5z m-560 -20 c-3 -3 -12 -4 -19
-1 -8 3 -5 6 6 6 11 1 17 -2 13 -5z m646 -1 c-7 -2 -19 -2 -25 0 -7 3 -2 5 12
5 14 0 19 -2 13 -5z m434 -15 c-3 -8 -6 -5 -6 6 -1 11 2 17 5 13 3 -3 4 -12 1
-19z m260 16 c-3 -3 -12 -4 -19 -1 -8 3 -5 6 6 6 11 1 17 -2 13 -5z m80 0 c-3
-3 -12 -4 -19 -1 -8 3 -5 6 6 6 11 1 17 -2 13 -5z m-1150 -10 c-3 -3 -12 -4
-19 -1 -8 3 -5 6 6 6 11 1 17 -2 13 -5z m310 -41 c-3 -10 -5 -2 -5 17 0 19 2
27 5 18 2 -10 2 -26 0 -35z m158 28 c-3 -6 -14 -10 -23 -10 -15 1 -15 2 1 6 9
2 17 9 17 15 0 6 3 9 6 5 3 -3 3 -10 -1 -16z m162 -3 c-3 -8 -6 -5 -6 6 -1 11
2 17 5 13 3 -3 4 -12 1 -19z m244 -193 c-5 -11 -12 -27 -14 -35 -4 -9 -6 -7
-6 7 -1 12 4 25 9 28 6 3 11 54 12 113 l2 107 3 -100 c2 -55 -1 -109 -6 -120z
m179 123 c9 1 5 -6 -9 -19 -19 -15 -22 -22 -12 -28 18 -12 -14 -41 -42 -40
-21 2 -21 2 2 6 20 4 22 9 17 34 -3 16 -1 29 4 29 6 0 11 26 12 58 l1 57 6
-50 c4 -37 10 -49 21 -47z m-1363 47 c-4 -8 -12 -15 -19 -14 -10 0 -10 2 0 6
6 2 12 12 12 21 0 8 3 13 6 9 4 -3 4 -13 1 -22z m706 18 c-7 -2 -19 -2 -25 0
-7 3 -2 5 12 5 14 0 19 -2 13 -5z m544 -9 c-3 -3 -12 -4 -19 -1 -8 3 -5 6 6 6
11 1 17 -2 13 -5z m-977 -8 c0 -2 -7 -7 -16 -10 -8 -3 -12 -2 -9 4 6 10 25 14
25 6z m55 -6 c3 -6 -1 -7 -9 -4 -18 7 -21 14 -7 14 6 0 13 -4 16 -10z m482
-12 c-3 -8 -6 -5 -6 6 -1 11 2 17 5 13 3 -3 4 -12 1 -19z m-702 2 c3 -6 -1 -7
-9 -4 -18 7 -21 14 -7 14 6 0 13 -4 16 -10z m653 3 c-10 -2 -26 -2 -35 0 -10
3 -2 5 17 5 19 0 27 -2 18 -5z m605 -8 c-3 -9 -8 -14 -10 -11 -3 3 -2 9 2 15
9 16 15 13 8 -4z m84 -17 c-3 -7 -5 -2 -5 12 0 14 2 19 5 13 2 -7 2 -19 0 -25z
m48 0 c-4 -18 -11 -37 -15 -42 -5 -5 -4 10 2 33 12 48 23 56 13 9z m-1270 12
c3 -6 -1 -7 -9 -4 -18 7 -21 14 -7 14 6 0 13 -4 16 -10z m324 -42 c-1 -55 -5
-50 -11 15 -2 20 0 37 4 37 4 0 7 -24 7 -52z m98 20 c-3 -7 -5 -2 -5 12 0 14
2 19 5 13 2 -7 2 -19 0 -25z m660 26 c-3 -3 -12 -4 -19 -1 -8 3 -5 6 6 6 11 1
17 -2 13 -5z m-1152 -22 c-3 -3 -11 0 -18 7 -9 10 -8 11 6 5 10 -3 15 -9 12
-12z m422 -14 c-3 -7 -5 -2 -5 12 0 14 2 19 5 13 2 -7 2 -19 0 -25z m60 -93
c11 -18 12 -17 13 15 1 34 2 34 12 10 11 -24 12 -24 18 15 l7 40 3 -45 c2 -37
3 -41 9 -20 l7 25 9 -25 c9 -24 10 -23 16 15 l6 40 2 -39 c1 -48 12 -40 22 17
l8 42 -3 -45 c-2 -25 -7 -54 -10 -65 -4 -11 3 -2 14 20 19 35 20 36 14 10 -3
-16 -7 -37 -8 -45 0 -8 -5 -18 -11 -22 -6 -4 -2 -8 8 -8 9 0 17 5 17 10 0 12
22 9 32 -5 5 -6 8 -4 8 5 0 13 1 13 10 0 14 -21 12 -33 -2 -24 -7 4 -10 3 -5
-1 4 -5 0 -17 -10 -27 -9 -10 -14 -18 -12 -19 53 -10 55 -9 35 6 -11 8 -17 16
-13 16 4 1 13 2 20 3 6 1 11 9 9 19 -4 23 5 22 18 -3 8 -15 8 -20 -1 -18 -6 2
-13 -2 -16 -9 -2 -6 3 -10 13 -9 25 4 29 24 9 46 -15 17 -15 19 2 29 14 8 9 9
-24 7 -27 -2 -43 1 -43 8 0 6 -5 4 -10 -4 -9 -13 -10 -13 -10 0 0 13 -1 13
-10 0 -16 -25 -11 -5 10 41 11 24 20 38 20 31 0 -7 -5 -22 -11 -34 -18 -34 -1
-32 20 3 12 19 21 29 21 24 0 -6 -7 -21 -16 -33 -22 -32 0 -27 26 6 l22 27
-16 -27 c-19 -32 -12 -36 18 -10 20 16 20 16 7 0 -19 -25 -2 -22 28 5 l26 22
-24 -27 c-22 -25 -19 -39 5 -20 5 4 -1 -2 -13 -13 -16 -15 -20 -24 -13 -35 14
-22 12 -32 -10 -60 -16 -20 -19 -21 -13 -5 5 16 4 18 -8 9 -21 -15 -56 -15
-70 2 -6 8 -21 13 -33 13 -20 -1 -20 -2 -1 -6 11 -3 25 -13 32 -23 7 -10 22
-16 38 -15 14 2 23 0 20 -4 -8 -13 -43 -6 -65 14 -25 23 -26 8 0 -25 11 -14
20 -29 20 -34 0 -5 -14 10 -30 32 -38 53 -46 54 -20 1 12 -22 19 -46 16 -52
-3 -7 -5 -6 -5 3 -1 8 -10 29 -22 45 l-20 30 5 -35 c5 -31 5 -33 -6 -12 -16
31 -30 28 -23 -5 l6 -28 -15 30 -14 30 -2 -30 -1 -30 -13 30 -13 30 -8 -25
c-7 -24 -8 -24 -16 -5 -6 15 -8 9 -10 -25 -2 -40 -3 -41 -6 -11 -4 29 -8 32
-28 28 -15 -2 -22 0 -18 6 4 6 0 8 -10 4 -10 -3 -17 -2 -17 4 0 6 13 8 33 5
30 -6 31 -5 7 5 -14 6 -38 12 -55 13 -20 1 -29 6 -27 15 3 12 0 12 -12 1 -19
-15 -21 -24 -4 -14 7 5 8 3 3 -6 -5 -9 -4 -11 3 -6 8 4 16 -3 22 -19 5 -14 14
-23 20 -20 5 3 10 2 10 -4 0 -7 8 -7 24 -1 19 7 26 5 30 -7 4 -9 4 -18 1 -21
-3 -3 -5 0 -5 6 0 6 -18 11 -42 10 -40 0 -41 -1 -17 -14 13 -7 20 -13 14 -13
-15 0 -62 28 -47 29 6 0 12 5 12 11 0 5 -4 8 -9 5 -5 -4 -7 4 -5 16 2 13 2 17
-2 10 -4 -9 -12 -5 -26 13 -11 14 -18 29 -14 32 3 4 6 0 6 -8 0 -12 2 -12 10
1 6 10 3 24 -11 46 -10 17 -19 38 -18 45 0 8 5 2 11 -14 5 -15 14 -24 20 -21
6 4 8 2 4 -4 -3 -6 -3 -13 2 -16 5 -3 9 3 9 12 0 27 -61 109 -77 104 -13 -3
-12 -2 0 7 22 16 27 14 34 -14 3 -13 15 -29 26 -35 11 -6 18 -15 15 -20 -3 -6
1 -7 10 -4 9 4 15 3 14 -2 -3 -18 1 -25 11 -19 7 4 -4 23 -25 46 -19 21 -35
45 -35 52 0 6 9 -2 19 -19 21 -35 32 -43 61 -49 24 -5 25 -2 4 33 l-16 27 26
-28 c27 -30 36 -16 11 17 -8 11 -15 25 -15 30 0 6 9 -4 20 -21 11 -18 25 -33
30 -33 7 0 5 9 -4 22 -9 12 -16 32 -16 43 1 15 4 11 15 -12 8 -18 19 -33 25
-33 7 0 8 6 0 19 -5 11 -9 44 -9 73 l2 53 6 -55 c4 -30 12 -64 18 -75z m200
103 c-3 -8 -6 -5 -6 6 -1 11 2 17 5 13 3 -3 4 -12 1 -19z m263 2 c-6 -11 -13
-20 -16 -20 -2 0 0 9 6 20 6 11 13 20 16 20 2 0 0 -9 -6 -20z m57 -47 c-2 -16
-4 -5 -4 22 0 28 2 40 4 28 2 -13 2 -35 0 -50z m-2231 -1 c-1 -51 -9 -62 -43
-62 -24 0 -32 -25 -10 -33 6 -2 -1 -4 -16 -4 -20 0 -25 3 -18 10 19 19 12 27
-23 27 l-34 0 5 41 c4 29 2 44 -8 50 -10 6 -5 9 16 9 17 0 35 4 42 8 7 4 29 6
51 4 l38 -4 0 -46z m1811 52 c-3 -3 -12 -4 -19 -1 -8 3 -5 6 6 6 11 1 17 -2
13 -5z m303 -14 c-6 -11 -13 -20 -16 -20 -2 0 0 9 6 20 6 11 13 20 16 20 2 0
0 -9 -6 -20z m371 -25 c4 11 8 14 8 8 1 -7 9 -13 19 -14 10 0 12 -3 4 -6 -6
-2 -10 -8 -8 -11 2 -4 -14 -8 -36 -9 -29 -1 -37 2 -29 10 6 6 11 25 12 42 l1
30 10 -35 c9 -31 11 -33 19 -15z m-1118 28 c-7 -2 -19 -2 -25 0 -7 3 -2 5 12
5 14 0 19 -2 13 -5z m954 -15 c-3 -8 -6 -5 -6 6 -1 11 2 17 5 13 3 -3 4 -12 1
-19z m-3428 -4 c12 8 47 -21 37 -31 -3 -3 0 -13 7 -21 9 -12 9 -16 0 -19 -7
-2 -9 -11 -6 -19 3 -8 0 -14 -6 -14 -6 0 -11 -7 -11 -16 0 -10 -6 -14 -14 -11
-7 3 -19 0 -25 -6 -8 -8 -11 -8 -11 2 0 7 -6 11 -14 8 -12 -5 -14 5 -13 46 2
47 4 52 26 55 15 3 30 -3 38 -14 7 -10 13 -13 13 -8 0 17 -23 34 -46 34 -30 0
-47 -24 -42 -60 3 -21 0 -30 -9 -30 -8 0 -11 5 -7 11 3 6 0 16 -7 21 -10 7
-11 11 -2 14 7 3 9 12 6 20 -3 8 0 14 6 14 6 0 11 7 11 16 0 10 6 14 15 11 8
-4 17 -1 21 5 4 7 9 6 14 -2 4 -7 13 -9 19 -6z m3398 -196 c-1 -40 -3 -8 -3
72 0 80 2 112 3 73 2 -40 2 -106 0 -145z m-890 196 c-3 -3 -12 -4 -19 -1 -8 3
-5 6 6 6 11 1 17 -2 13 -5z m93 -4 c-8 -5 -19 -10 -25 -10 -5 0 -3 5 5 10 8 5
20 10 25 10 6 0 3 -5 -5 -10z m103 -35 c4 -27 3 -35 -3 -25 -5 8 -10 28 -10
44 0 39 6 30 13 -19z m274 23 c-3 -8 -6 -5 -6 6 -1 11 2 17 5 13 3 -3 4 -12 1
-19z m30 0 c-3 -8 -6 -5 -6 6 -1 11 2 17 5 13 3 -3 4 -12 1 -19z m64 -15 c-12
-20 -14 -14 -5 12 4 9 9 14 11 11 3 -2 0 -13 -6 -23z m189 23 c0 -2 -8 -10
-17 -17 -16 -13 -17 -12 -4 4 13 16 21 21 21 13z m49 -19 c-2 -1 -15 -11 -29
-22 l-25 -20 19 23 c11 12 24 22 29 22 6 0 8 -1 6 -3z m-934 -27 c13 -6 15 -9
5 -9 -8 0 -22 4 -30 9 -18 12 -2 12 25 0z m1246 -5 c13 2 15 -2 10 -23 -4 -14
-13 -27 -19 -28 -7 -1 -8 0 -2 3 5 2 10 14 10 26 0 17 -2 19 -9 8 -7 -11 -12
-9 -22 10 -10 20 -10 22 2 13 8 -6 21 -10 30 -9z m-451 2 c0 -2 -10 -12 -22
-23 l-23 -19 19 23 c18 21 26 27 26 19z m124 -46 l-28 -26 22 26 c12 14 22 32
23 40 0 11 2 11 6 0 3 -7 -7 -25 -23 -40z m386 34 c-17 -21 -1 -19 24 3 l21
17 -19 -23 c-11 -12 -26 -20 -33 -18 -8 3 -13 0 -12 -7 3 -24 -1 -34 -16 -34
-11 0 -12 4 -4 14 6 7 9 20 5 28 -3 9 -2 14 3 11 5 -3 14 1 21 9 7 8 15 15 17
15 3 0 0 -7 -7 -15z m-996 -11 c3 -8 2 -12 -4 -9 -6 3 -10 10 -10 16 0 14 7
11 14 -7z m895 -20 c-6 -7 -8 -17 -5 -23 3 -5 -1 -12 -10 -15 -9 -4 -14 -13
-10 -22 3 -8 2 -12 -4 -9 -6 3 -7 17 -4 31 4 17 0 32 -12 47 -19 22 -19 22 2
5 27 -24 38 -23 31 3 -4 17 -3 18 9 8 11 -9 11 -15 3 -25z m-1204 16 c13 -6
15 -9 5 -9 -8 0 -22 4 -30 9 -18 12 -2 12 25 0z m102 -6 c-3 -3 -12 -4 -19 -1
-8 3 -5 6 6 6 11 1 17 -2 13 -5z m698 -4 c-3 -5 -16 -15 -28 -21 -19 -9 -19
-8 3 10 28 23 34 26 25 11z m241 -142 c-4 -84 -13 -184 -20 -223 -19 -95 -19
-51 -1 71 8 54 15 145 15 202 0 56 3 102 7 102 3 0 3 -69 -1 -152z m309 142
c-3 -5 -12 -10 -18 -10 -7 0 -6 4 3 10 19 12 23 12 15 0z m-3090 -14 c252 -67
413 -325 361 -576 -26 -125 -88 -225 -179 -291 -65 -47 -64 -33 0 34 71 74
109 131 134 205 105 306 -118 622 -440 622 -142 0 -252 -49 -350 -155 -118
-130 -149 -301 -86 -469 34 -89 61 -131 136 -204 35 -34 61 -63 58 -66 -10
-11 -75 31 -122 78 -100 101 -150 262 -128 406 30 195 163 351 350 411 68 22
196 24 266 5z m1862 1 c0 -9 -9 -12 -26 -8 l-26 5 25 7 c14 4 25 7 26 8 0 1 1
-5 1 -12z m1019 -9 l19 -23 -25 20 c-14 11 -27 21 -29 22 -2 2 0 3 6 3 5 0 18
-10 29 -22z m-805 -5 c13 -16 12 -17 -3 -4 -10 7 -18 15 -18 17 0 8 8 3 21
-13z m-107 -2 c3 -4 -6 -6 -19 -3 -14 2 -25 6 -25 8 0 8 39 4 44 -5z m-134
-11 c-20 -13 -33 -13 -25 0 3 6 14 10 23 10 15 0 15 -2 2 -10z m985 -12 c6 -4
2 -8 -7 -8 -10 0 -18 7 -18 17 0 9 3 12 8 7 4 -5 12 -12 17 -16z m236 13 c-7
-5 -10 -14 -7 -20 4 -6 2 -11 -3 -11 -12 0 -15 23 -4 33 3 4 11 7 17 7 6 0 5
-4 -3 -9z m-538 -8 c-7 -2 -14 -21 -14 -41 -2 -32 -3 -33 -6 -9 -5 35 2 57 19
56 10 0 10 -2 1 -6z m177 -8 c0 -8 -2 -15 -4 -15 -2 0 -6 7 -10 15 -3 8 -1 15
4 15 6 0 10 -7 10 -15z m171 -2 c13 -17 13 -17 -6 -3 -11 8 -22 16 -24 17 -2
2 0 3 6 3 6 0 17 -8 24 -17z m-891 -13 c8 -16 8 -20 -4 -20 -9 0 -13 6 -10 14
4 11 -4 16 -33 19 l-38 4 37 1 c28 2 40 -3 48 -18z m990 16 c0 -2 -8 -10 -17
-17 -16 -13 -17 -12 -4 4 13 16 21 21 21 13z m127 -2 c-3 -3 -12 -4 -19 -1 -8
3 -5 6 6 6 11 1 17 -2 13 -5z m-1210 -10 c-3 -3 -12 -4 -19 -1 -8 3 -5 6 6 6
11 1 17 -2 13 -5z m773 -19 c0 -8 -2 -15 -4 -15 -2 0 -6 7 -10 15 -3 8 -1 15
4 15 6 0 10 -7 10 -15z m-833 -1 c-3 -3 -12 -4 -19 -1 -8 3 -5 6 6 6 11 1 17
-2 13 -5z m76 -1 c-7 -2 -19 -2 -25 0 -7 3 -2 5 12 5 14 0 19 -2 13 -5z m844
-45 c-2 -13 -4 -5 -4 17 -1 22 1 32 4 23 2 -10 2 -28 0 -40z m104 35 c12 -16
12 -17 -2 -6 -9 7 -20 9 -24 5 -5 -4 -5 -1 -1 6 9 16 11 15 27 -5z m194 7 c3
-5 1 -10 -4 -10 -6 0 -11 5 -11 10 0 6 2 10 4 10 3 0 8 -4 11 -10z m48 3 c-7
-2 -19 -2 -25 0 -7 3 -2 5 12 5 14 0 19 -2 13 -5z m-523 -19 c0 -2 -9 -4 -20
-4 -11 0 -20 4 -20 9 0 5 9 7 20 4 11 -3 20 -7 20 -9z m40 6 c0 -5 -7 -7 -15
-4 -8 4 -15 8 -15 10 0 2 7 4 15 4 8 0 15 -4 15 -10z m27 -12 c-3 -8 -6 -5 -6
6 -1 11 2 17 5 13 3 -3 4 -12 1 -19z m90 -15 c-3 -10 -5 -4 -5 12 0 17 2 24 5
18 2 -7 2 -21 0 -30z m-769 20 c-16 -2 -40 -2 -55 0 -16 2 -3 4 27 4 30 0 43
-2 28 -4z m749 -25 c-3 -7 -5 -2 -5 12 0 14 2 19 5 13 2 -7 2 -19 0 -25z m126
-51 c18 -4 17 -5 -5 -6 -27 -1 -28 1 -26 47 l1 47 4 -42 c3 -33 8 -43 26 -46z
m111 71 c-3 -4 1 -8 8 -8 10 0 9 -3 -2 -10 -12 -8 -12 -10 3 -16 9 -3 26 -4
37 -1 11 3 18 1 14 -4 -8 -14 -50 -10 -64 6 -7 8 -9 15 -4 15 4 0 0 6 -10 13
-16 12 -16 13 3 13 11 0 17 -4 15 -8z m-1087 -4 c-3 -3 -12 -4 -19 -1 -8 3 -5
6 6 6 11 1 17 -2 13 -5z m830 -26 c-3 -7 -5 -2 -5 12 0 14 2 19 5 13 2 -7 2
-19 0 -25z m217 23 c4 -5 -3 -7 -14 -4 -23 6 -26 13 -6 13 8 0 17 -4 20 -9z
m131 0 c3 -5 1 -12 -5 -16 -5 -3 -10 -1 -10 5 0 6 -5 8 -12 4 -7 -4 -8 -3 -4
4 9 14 23 15 31 3z m58 2 c-7 -2 -21 -2 -30 0 -10 3 -4 5 12 5 17 0 24 -2 18
-5z m-1125 -28 c-3 -3 -9 2 -12 12 -6 14 -5 15 5 6 7 -7 10 -15 7 -18z m19 3
c-3 -8 -6 -5 -6 6 -1 11 2 17 5 13 3 -3 4 -12 1 -19z m473 2 c-6 -11 -13 -20
-16 -20 -2 0 0 9 6 20 6 11 13 20 16 20 2 0 0 -9 -6 -20z m-602 3 c-10 -2 -26
-2 -35 0 -10 3 -2 5 17 5 19 0 27 -2 18 -5z m623 -27 c-14 -15 -19 -26 -12
-31 6 -3 16 -16 22 -28 7 -15 3 -12 -14 8 l-25 30 22 26 c11 14 23 25 25 23 3
-2 -6 -15 -18 -28z m105 -31 l0 -60 -3 58 c-4 53 -6 57 -28 57 -14 0 -25 -5
-25 -12 0 -6 -3 -9 -6 -5 -13 12 9 28 34 25 26 -3 27 -6 28 -63z m81 33 c-3
-7 -5 -2 -5 12 0 14 2 19 5 13 2 -7 2 -19 0 -25z m-31 2 c9 0 14 -10 13 -27
-2 -24 -2 -25 -6 -5 -2 12 -11 22 -19 22 -8 0 -14 8 -13 18 0 10 3 12 6 5 2
-7 11 -13 19 -13z m279 -9 c-3 -2 -12 2 -21 10 -13 11 -15 11 -14 -2 5 -30 0
-50 -10 -44 -8 5 -8 11 -1 19 6 7 8 16 5 19 -14 14 7 26 26 15 11 -7 17 -14
15 -17z m155 20 c-20 -4 -42 -11 -50 -15 -8 -4 -6 0 4 8 11 9 34 15 50 15 31
-1 31 -1 -4 -8z m-1059 -28 c13 -16 12 -17 -3 -4 -17 13 -22 21 -14 21 2 0 10
-8 17 -17z m506 0 c-4 -3 1 -16 10 -27 18 -21 18 -21 -4 -2 -20 16 -23 36 -6
36 4 0 3 -3 0 -7z m200 -30 c-3 -10 -5 -4 -5 12 0 17 2 24 5 18 2 -7 2 -21 0
-30z m271 30 c-10 -2 -28 -2 -40 0 -13 2 -5 4 17 4 22 1 32 -1 23 -4z m-1498
-65 c0 -5 -8 -2 -17 9 -10 10 -15 14 -10 9 9 -13 9 -28 -1 -22 -8 5 -8 -22 -2
-139 l3 -60 7 55 c7 52 7 51 5 -18 -1 -48 1 -69 7 -60 7 9 8 4 3 -15 -3 -16
-2 -26 3 -23 5 3 17 -11 26 -32 19 -41 61 -98 52 -69 -8 26 1 21 18 -10 9 -16
15 -21 16 -13 0 13 2 13 9 1 7 -11 12 -7 20 20 l11 34 -5 -35 c-3 -19 -18 -48
-34 -65 -30 -33 -34 -71 -10 -102 12 -16 11 -15 -9 1 -12 11 -22 23 -22 28 0
5 -13 40 -30 78 -32 73 -35 84 -21 75 19 -11 19 11 -1 45 -17 30 -17 22 -1
-17 3 -7 0 -13 -5 -13 -6 0 -22 35 -36 78 -25 78 -33 155 -28 267 l3 60 24
-28 c14 -15 25 -33 25 -39z m497 55 c-4 -3 -1 -13 6 -22 11 -14 10 -14 -5 -2
-16 12 -16 31 -1 31 4 0 3 -3 0 -7z m220 -60 c-2 -16 -4 -5 -4 22 0 28 2 40 4
28 2 -13 2 -35 0 -50z m490 35 c-3 -7 -5 -2 -5 12 0 14 2 19 5 13 2 -7 2 -19
0 -25z m40 -5 c-3 -10 -5 -4 -5 12 0 17 2 24 5 18 2 -7 2 -21 0 -30z m-859 20
c-16 -2 -40 -2 -55 0 -16 2 -3 4 27 4 30 0 43 -2 28 -4z m799 -40 c-3 -10 -5
-2 -5 17 0 19 2 27 5 18 2 -10 2 -26 0 -35z m78 -28 c-4 -36 -10 -64 -12 -61
-3 2 -2 34 2 71 4 36 10 64 12 61 3 -2 2 -34 -2 -71z m243 68 c-10 -2 -28 -2
-40 0 -13 2 -5 4 17 4 22 1 32 -1 23 -4z m-1288 -13 c0 -5 -4 -10 -9 -10 -6 0
-13 5 -16 10 -3 6 1 10 9 10 9 0 16 -4 16 -10z m245 0 c3 -6 -1 -7 -9 -4 -18
7 -21 14 -7 14 6 0 13 -4 16 -10z m-82 -7 c-13 -2 -35 -2 -50 0 -16 2 -5 4 22
4 28 0 40 -2 28 -4z m424 -15 c-3 -8 -6 -5 -6 6 -1 11 2 17 5 13 3 -3 4 -12 1
-19z m-110 -20 c-3 -7 -5 -2 -5 12 0 14 2 19 5 13 2 -7 2 -19 0 -25z m50 10
c-3 -8 -6 -5 -6 6 -1 11 2 17 5 13 3 -3 4 -12 1 -19z m30 -15 c-3 -10 -5 -4
-5 12 0 17 2 24 5 18 2 -7 2 -21 0 -30z m547 23 c-4 -9 3 -16 18 -19 21 -4 20
-4 -4 -6 -22 -1 -28 4 -28 19 0 11 4 20 10 20 5 0 7 -6 4 -14z m96 -3 c0 -15
-2 -16 -10 -3 -13 21 -22 7 -23 -41 -1 -25 3 -44 10 -46 8 -3 10 5 7 24 -2 15
-1 23 3 17 5 -6 22 -10 38 -9 17 2 24 1 18 -2 -9 -3 -7 -15 8 -46 11 -23 13
-34 5 -24 -19 24 -20 24 -42 7 -19 -14 -19 -14 0 8 11 12 14 22 8 22 -6 0 -13
-4 -17 -10 -3 -5 -13 -6 -22 -3 -13 5 -15 2 -10 -11 4 -9 3 -15 -2 -11 -5 3
-12 1 -16 -5 -4 -6 -10 -8 -14 -6 -9 6 -8 66 0 81 4 6 9 22 13 37 5 20 2 28
-11 31 -10 3 -1 5 20 6 29 1 37 -3 37 -16z m137 11 c-3 -3 -12 -4 -19 -1 -8 3
-5 6 6 6 11 1 17 -2 13 -5z m-1520 -26 c-3 -8 -6 -5 -6 6 -1 11 2 17 5 13 3
-3 4 -12 1 -19z m20 -10 c-3 -7 -5 -2 -5 12 0 14 2 19 5 13 2 -7 2 -19 0 -25z
m330 26 c-3 -3 -12 -4 -19 -1 -8 3 -5 6 6 6 11 1 17 -2 13 -5z m460 -106 c-2
-24 -4 -7 -4 37 0 44 2 63 4 43 2 -21 2 -57 0 -80z m210 90 c-3 -8 -6 -5 -6 6
-1 11 2 17 5 13 3 -3 4 -12 1 -19z m-617 2 c18 -12 2 -12 -25 0 -13 6 -15 9
-5 9 8 0 22 -4 30 -9z m110 -16 c0 -2 -9 0 -20 6 -11 6 -20 13 -20 16 0 2 9 0
20 -6 11 -6 20 -13 20 -16z m337 -11 c-3 -10 -5 -4 -5 12 0 17 2 24 5 18 2 -7
2 -21 0 -30z m40 15 c-3 -8 -6 -5 -6 6 -1 11 2 17 5 13 3 -3 4 -12 1 -19z
m210 -25 c-3 -10 -5 -2 -5 17 0 19 2 27 5 18 2 -10 2 -26 0 -35z m30 0 c-3
-10 -5 -2 -5 17 0 19 2 27 5 18 2 -10 2 -26 0 -35z m306 40 c-7 -2 -19 -2 -25
0 -7 3 -2 5 12 5 14 0 19 -2 13 -5z m-813 -13 c18 -12 2 -12 -25 0 -13 6 -15
9 -5 9 8 0 22 -4 30 -9z m577 -42 c-2 -13 -4 -5 -4 17 -1 22 1 32 4 23 2 -10
2 -28 0 -40z m297 37 c11 -8 16 -15 10 -15 -5 0 -18 7 -28 15 -11 8 -16 15
-10 15 5 0 18 -7 28 -15z m-1457 -17 c-3 -8 -6 -5 -6 6 -1 11 2 17 5 13 3 -3
4 -12 1 -19z m271 15 c-10 -2 -26 -2 -35 0 -10 3 -2 5 17 5 19 0 27 -2 18 -5z
m82 -3 c8 -5 11 -10 5 -10 -5 0 -17 5 -25 10 -8 5 -10 10 -5 10 6 0 17 -5 25
-10z m70 -16 c0 -2 -9 0 -20 6 -11 6 -20 13 -20 16 0 2 9 0 20 -6 11 -6 20
-13 20 -16z m477 4 c-3 -8 -6 -5 -6 6 -1 11 2 17 5 13 3 -3 4 -12 1 -19z m240
-25 c-3 -10 -5 -2 -5 17 0 19 2 27 5 18 2 -10 2 -26 0 -35z m-1120 5 c-3 -7
-5 -2 -5 12 0 14 2 19 5 13 2 -7 2 -19 0 -25z m20 -15 c-3 -10 -5 -2 -5 17 0
19 2 27 5 18 2 -10 2 -26 0 -35z m107 26 c19 -15 24 -24 16 -33 -5 -7 -7 -16
-4 -19 4 -3 -5 -12 -20 -18 -14 -7 -26 -16 -26 -21 0 -5 5 -6 12 -2 7 5 8 3 3
-5 -5 -10 -10 -10 -19 -1 -8 8 -7 15 7 24 15 11 15 15 3 19 -8 3 -17 1 -20 -6
-2 -7 -5 -4 -5 6 -1 14 4 17 22 12 21 -5 20 -5 -3 10 -23 15 -13 14 24 -1 25
-10 12 27 -15 42 -13 7 -19 13 -13 14 6 0 23 -9 38 -21z m345 -5 c14 -12 -19
-1 -35 12 -18 14 -18 14 6 3 14 -6 27 -13 29 -15z m168 4 c-3 -8 -6 -5 -6 6
-1 11 2 17 5 13 3 -3 4 -12 1 -19z m70 -30 c-2 -13 -4 -5 -4 17 -1 22 1 32 4
23 2 -10 2 -28 0 -40z m-760 20 c-3 -8 -6 -5 -6 6 -1 11 2 17 5 13 3 -3 4 -12
1 -19z m133 12 c8 -5 11 -10 5 -10 -5 0 -17 5 -25 10 -8 5 -10 10 -5 10 6 0
17 -5 25 -10z m310 -16 c0 -2 -9 0 -20 6 -11 6 -20 13 -20 16 0 2 9 0 20 -6
11 -6 20 -13 20 -16z m167 4 c-3 -8 -6 -5 -6 6 -1 11 2 17 5 13 3 -3 4 -12 1
-19z m280 -30 c-2 -13 -4 -5 -4 17 -1 22 1 32 4 23 2 -10 2 -28 0 -40z m130
20 c-3 -7 -5 -2 -5 12 0 14 2 19 5 13 2 -7 2 -19 0 -25z m40 -20 c-2 -13 -4
-5 -4 17 -1 22 1 32 4 23 2 -10 2 -28 0 -40z m90 0 c-2 -13 -4 -5 -4 17 -1 22
1 32 4 23 2 -10 2 -28 0 -40z m118 42 c3 -5 1 -10 -4 -10 -6 0 -11 5 -11 10 0
6 2 10 4 10 3 0 8 -4 11 -10z m42 4 c-3 -3 -12 -4 -19 -1 -8 3 -5 6 6 6 11 1
17 -2 13 -5z m-1360 -26 c-3 -8 -6 -5 -6 6 -1 11 2 17 5 13 3 -3 4 -12 1 -19z
m448 12 c3 -6 -1 -7 -9 -4 -18 7 -21 14 -7 14 6 0 13 -4 16 -10z m582 -27 c-3
-10 -5 -4 -5 12 0 17 2 24 5 18 2 -7 2 -21 0 -30z m-1010 5 c-3 -8 -6 -5 -6 6
-1 11 2 17 5 13 3 -3 4 -12 1 -19z m140 0 c-3 -8 -6 -5 -6 6 -1 11 2 17 5 13
3 -3 4 -12 1 -19z m610 -10 c-3 -7 -5 -2 -5 12 0 14 2 19 5 13 2 -7 2 -19 0
-25z m-700 -10 c-3 -7 -5 -2 -5 12 0 14 2 19 5 13 2 -7 2 -19 0 -25z m513 22
c8 -5 11 -10 5 -10 -5 0 -17 5 -25 10 -8 5 -10 10 -5 10 6 0 17 -5 25 -10z
m407 -112 c-2 -24 -4 -5 -4 42 0 47 2 66 4 43 2 -24 2 -62 0 -85z m-950 20
c-2 -18 -4 -4 -4 32 0 36 2 50 4 33 2 -18 2 -48 0 -65z m690 70 c-3 -8 -6 -5
-6 6 -1 11 2 17 5 13 3 -3 4 -12 1 -19z m589 5 c0 -10 -5 -21 -9 -24 -5 -3
-12 -28 -17 -55 l-9 -49 4 58 c2 32 9 65 16 73 15 18 17 18 15 -3z m-746 -3
c8 -5 11 -10 5 -10 -5 0 -17 5 -25 10 -8 5 -10 10 -5 10 6 0 17 -5 25 -10z
m775 -9 c-2 -12 8 -29 28 -45 17 -14 27 -29 23 -33 -4 -4 -12 1 -18 11 -7 13
-12 15 -18 6 -5 -8 -12 -7 -25 7 -17 16 -18 16 -12 1 3 -10 2 -20 -3 -23 -6
-4 -10 -14 -9 -23 0 -11 2 -12 6 -4 2 6 9 10 14 7 5 -4 6 2 2 11 -4 12 -2 15
8 12 8 -3 13 -11 11 -17 -1 -7 2 -10 7 -7 5 3 13 0 18 -7 11 -14 -28 -153 -40
-141 -4 4 -4 -7 -1 -24 4 -22 2 -36 -10 -47 -9 -9 -16 -24 -16 -33 0 -15 2
-15 10 -2 7 10 10 -15 10 -81 0 -60 -5 -101 -12 -112 -11 -15 -13 -12 -11 20
2 21 6 51 9 67 5 22 4 27 -6 21 -9 -6 -10 -3 -1 13 6 11 11 29 10 39 0 11 -6
5 -15 -16 -8 -18 -13 -40 -10 -48 4 -9 2 -11 -6 -7 -8 5 -9 2 -5 -10 5 -11 3
-15 -5 -10 -7 5 -9 2 -5 -9 5 -14 -44 -97 -59 -97 -3 0 6 15 20 33 29 38 32
46 14 43 -21 -3 -39 -17 -33 -25 2 -5 -8 -19 -23 -32 -25 -22 -25 -22 -8 -1
11 12 15 22 11 22 -4 0 0 9 10 20 22 24 9 27 -17 3 -10 -9 -18 -14 -18 -10 0
3 22 23 50 45 27 22 47 42 43 45 -3 4 -19 -5 -36 -19 -31 -26 -87 -58 -87 -50
0 3 13 12 30 21 16 8 46 30 67 48 20 17 33 25 28 17 -4 -8 -5 -12 -1 -8 4 3 8
10 8 15 0 4 4 16 10 26 5 10 11 26 13 35 2 9 7 26 11 36 6 15 4 17 -6 11 -9
-5 -11 -4 -6 4 4 6 12 8 18 5 8 -5 9 -1 5 10 -4 9 -3 15 3 11 5 -3 7 8 3 28
-3 23 0 37 11 46 20 17 21 32 0 24 -12 -4 -14 0 -8 22 5 20 4 26 -5 21 -6 -4
-14 0 -17 8 -9 23 10 91 25 88 7 -1 10 7 7 22 -2 13 -2 27 1 30 10 10 12 7 8
-13z m-1258 -28 c-3 -10 -5 -4 -5 12 0 17 2 24 5 18 2 -7 2 -21 0 -30z m77 2
c5 -22 4 -26 -4 -15 -5 8 -10 24 -10 34 0 26 6 18 14 -19z m983 -263 c-1 -53
-3 -7 -3 103 0 110 2 154 3 97 2 -57 2 -147 0 -200z m-1140 226 c-2 -13 -4 -3
-4 22 0 25 2 35 4 23 2 -13 2 -33 0 -45z m523 37 c0 -2 -6 -2 -14 1 -16 6 -17
-27 -1 -38 5 -4 7 -9 4 -13 -3 -3 -14 5 -25 17 -10 12 -13 18 -6 14 9 -6 11
-1 8 18 -4 23 -3 25 15 16 10 -6 19 -13 19 -15z m61 2 c-10 -9 -11 -8 -5 6 3
10 9 15 12 12 3 -3 0 -11 -7 -18z m166 1 c-3 -8 -6 -5 -6 6 -1 11 2 17 5 13 3
-3 4 -12 1 -19z m435 -318 c4 8 9 76 11 150 l3 135 2 -140 c2 -136 -3 -165
-30 -165 -4 0 -7 82 -6 183 l2 182 6 -180 c3 -99 8 -173 12 -165z m55 278 c-2
-13 -4 -3 -4 22 0 25 2 35 4 23 2 -13 2 -33 0 -45z m-879 -58 c0 -33 -1 -32
-9 10 -4 25 -7 59 -7 75 0 26 1 25 9 -10 4 -22 8 -56 7 -75z m349 88 c-3 -8
-6 -5 -6 6 -1 11 2 17 5 13 3 -3 4 -12 1 -19z m80 -10 c-3 -7 -5 -2 -5 12 0
14 2 19 5 13 2 -7 2 -19 0 -25z m280 -60 c-2 -18 -4 -4 -4 32 0 36 2 50 4 33
2 -18 2 -48 0 -65z m150 10 c-2 -18 -4 -6 -4 27 0 33 2 48 4 33 2 -15 2 -42 0
-60z m-2524 43 c32 -29 40 -73 23 -116 -16 -38 -37 -52 -95 -61 -37 -6 -41 -9
-41 -35 0 -26 -7 -32 -59 -56 -42 -19 -62 -34 -66 -50 -8 -33 27 -94 89 -156
53 -53 53 -55 51 -109 -3 -64 -10 -79 -30 -72 -9 4 -18 -3 -24 -19 -10 -26
-37 -42 -46 -27 -4 6 -13 10 -21 10 -8 0 -12 -4 -9 -10 3 -5 1 -10 -5 -10 -7
0 -10 6 -8 13 6 16 39 22 47 9 8 -13 22 -4 37 23 6 11 17 20 25 20 31 0 32 18
6 113 -10 38 -18 46 -39 43 -4 0 -12 8 -18 19 -10 20 -12 19 -44 -15 -18 -19
-42 -35 -52 -35 -13 1 -9 5 13 15 45 19 72 82 43 100 -6 4 -7 -1 -4 -12 5 -16
4 -16 -10 1 -23 28 -30 13 -12 -23 15 -29 15 -31 -5 -42 -21 -11 -38 0 -39 24
0 8 -30 10 -30 1 0 -3 5 -14 10 -25 9 -16 7 -19 -14 -19 -13 0 -27 7 -31 18
-5 14 -4 15 6 5 20 -20 30 -15 23 12 -5 21 -3 25 15 25 11 0 25 -9 32 -21 7
-14 14 -18 21 -11 7 7 6 17 -2 32 -6 12 -9 32 -6 45 6 22 5 22 -23 -6 -16 -16
-39 -29 -50 -29 -11 0 -23 -4 -26 -10 -3 -5 1 -10 9 -10 13 0 12 -4 -5 -21
-24 -24 -24 -24 27 -44 l39 -15 -40 6 c-38 5 -39 4 -21 -10 15 -12 16 -16 5
-16 -9 -1 -6 -7 10 -20 13 -11 19 -20 14 -20 -16 0 -11 -27 6 -29 9 -2 40 -4
68 -5 63 -1 92 21 103 81 l8 38 1 -34 c1 -25 -7 -41 -34 -68 -32 -32 -39 -35
-84 -31 -39 2 -47 0 -39 -9 6 -7 20 -13 32 -14 11 0 16 -3 9 -5 -7 -3 -9 -13
-6 -22 4 -13 3 -14 -5 -3 -5 7 -15 10 -21 7 -15 -10 -14 -27 2 -24 6 2 11 -5
9 -14 -3 -19 20 -34 75 -47 22 -5 29 -9 16 -10 -12 -1 -34 4 -49 9 -15 6 -29
9 -31 7 -8 -9 9 -35 30 -46 18 -9 18 -10 2 -5 -11 4 -27 6 -37 6 -17 -1 -46
54 -34 65 3 3 6 0 6 -8 0 -9 6 -24 14 -35 14 -18 15 -17 12 9 -2 16 -10 37
-19 48 -10 11 -17 26 -17 33 0 8 -3 23 -7 33 -6 16 -8 15 -14 -7 l-7 -25 -1
27 c-1 14 -4 34 -8 44 -6 16 -7 16 -14 -2 -7 -18 -8 -18 -8 2 -1 11 4 25 11
32 8 8 8 15 -2 27 -7 8 -9 15 -5 15 4 0 -5 14 -19 31 -14 17 -26 35 -26 40 0
19 -51 90 -60 84 -5 -3 -7 0 -4 8 4 11 -1 13 -19 10 -22 -4 -25 -1 -30 39 -6
48 -42 85 -87 90 l-25 3 0 130 0 130 98 3 97 3 0 -36 0 -35 -65 0 c-60 0 -65
-2 -65 -21 0 -20 4 -21 57 -16 64 7 92 31 93 80 l0 27 75 0 c79 0 127 -16 139
-45 11 -30 6 -90 -9 -112 -17 -25 -13 -43 15 -61 20 -12 20 -9 20 102 0 83 3
115 13 119 6 2 42 3 79 2 55 -1 72 -5 91 -24z m1414 -3 c-3 -7 -5 -2 -5 12 0
14 2 19 5 13 2 -7 2 -19 0 -25z m1327 20 c-5 -8 -2 -9 9 -5 24 9 17 -14 -13
-40 -30 -28 -53 -29 -71 -5 -12 15 -12 16 2 4 23 -17 68 0 64 25 -2 18 2 33
11 33 3 0 2 -5 -2 -12z m-29 -16 c-3 -3 -11 0 -18 7 -9 10 -8 11 6 5 10 -3 15
-9 12 -12z m-1078 -44 c-2 -13 -4 -5 -4 17 -1 22 1 32 4 23 2 -10 2 -28 0 -40z
m410 30 c-3 -8 -6 -5 -6 6 -1 11 2 17 5 13 3 -3 4 -12 1 -19z m-680 -25 c-3
-10 -5 -4 -5 12 0 17 2 24 5 18 2 -7 2 -21 0 -30z m770 5 c-3 -7 -5 -2 -5 12
0 14 2 19 5 13 2 -7 2 -19 0 -25z m50 -5 c-3 -10 -5 -4 -5 12 0 17 2 24 5 18
2 -7 2 -21 0 -30z m50 -15 c-2 -13 -4 -5 -4 17 -1 22 1 32 4 23 2 -10 2 -28 0
-40z m-1822 -4 c-15 -24 -15 -24 4 -12 16 9 23 9 38 -3 17 -14 17 -13 0 14
-10 16 -16 32 -12 35 9 9 35 -27 35 -47 0 -14 2 -14 10 -1 16 26 21 4 8 -36
-13 -38 -14 -39 -62 -39 -48 0 -49 1 -62 39 -11 32 -11 37 0 33 8 -3 20 9 31
31 10 21 20 31 22 24 3 -7 -3 -24 -12 -38z m982 14 c-3 -7 -5 -2 -5 12 0 14 2
19 5 13 2 -7 2 -19 0 -25z m220 -20 c-2 -13 -4 -5 -4 17 -1 22 1 32 4 23 2
-10 2 -28 0 -40z m257 12 c-15 -22 -29 -40 -31 -40 -5 0 3 15 29 53 30 43 31
32 2 -13z m213 18 c-3 -8 -6 -5 -6 6 -1 11 2 17 5 13 3 -3 4 -12 1 -19z m-484
-52 c3 -30 1 -43 -4 -35 -5 8 -8 34 -8 59 1 53 6 44 12 -24z m321 52 c-4 -7
-16 -25 -26 -40 -10 -14 -19 -34 -19 -45 -1 -15 -2 -16 -6 -1 -4 14 42 98 54
98 2 0 1 -6 -3 -12z m-2997 -30 c-3 -7 -5 -2 -5 12 0 14 2 19 5 13 2 -7 2 -19
0 -25z m63 17 c0 -8 -4 -15 -10 -15 -5 0 -10 7 -10 15 0 8 5 15 10 15 6 0 10
-7 10 -15z m2970 7 c0 -5 -7 -17 -15 -28 -14 -18 -14 -17 -4 9 12 27 19 34 19
19z m31 -19 c-12 -20 -14 -14 -5 12 4 9 9 14 11 11 3 -2 0 -13 -6 -23z m-3065
-23 c8 0 14 7 14 15 0 18 4 19 31 3 17 -10 23 -10 26 0 12 32 23 6 23 -53 l0
-65 -65 0 -65 0 0 58 c0 56 11 92 18 58 2 -9 10 -16 18 -16z m2391 8 c-3 -8
-6 -5 -6 6 -1 11 2 17 5 13 3 -3 4 -12 1 -19z m810 0 c-3 -8 -6 -5 -6 6 -1 11
2 17 5 13 3 -3 4 -12 1 -19z m-106 -15 c-12 -20 -14 -14 -5 12 4 9 9 14 11 11
3 -2 0 -13 -6 -23z m-374 -15 c-3 -7 -5 -2 -5 12 0 14 2 19 5 13 2 -7 2 -19 0
-25z m530 10 c-3 -8 -6 -5 -6 6 -1 11 2 17 5 13 3 -3 4 -12 1 -19z m149 -135
c-3 -7 -11 -13 -18 -12 -10 0 -10 2 0 6 8 3 13 32 14 86 l2 82 3 -74 c2 -41 2
-80 -1 -88z m-276 98 c-28 -56 -35 -52 -8 4 12 24 23 43 26 41 2 -2 -6 -22
-18 -45z m495 -140 c-10 -10 -15 -11 -15 -3 0 7 5 12 10 12 6 0 11 39 12 93
l2 92 3 -89 c3 -71 1 -93 -12 -105z m32 67 c-2 -24 -4 -5 -4 42 0 47 2 66 4
43 2 -24 2 -62 0 -85z m-466 85 c-12 -20 -14 -14 -5 12 4 9 9 14 11 11 3 -2 0
-13 -6 -23z m116 5 c-3 -8 -6 -5 -6 6 -1 11 2 17 5 13 3 -3 4 -12 1 -19z
m-380 -10 c-3 -8 -6 -5 -6 6 -1 11 2 17 5 13 3 -3 4 -12 1 -19z m430 -10 c-3
-7 -5 -2 -5 12 0 14 2 19 5 13 2 -7 2 -19 0 -25z m331 2 c-5 -17 -8 -42 -5
-56 2 -13 0 -27 -4 -30 -5 -3 -9 19 -9 50 0 34 5 56 13 59 6 3 13 6 14 6 1 1
-3 -13 -9 -29z m-1254 -17 c9 -18 14 -33 12 -33 -6 0 -36 55 -36 66 0 11 5 3
24 -33z m85 -13 c0 -9 -4 -8 -9 5 -5 11 -9 27 -9 35 0 9 4 8 9 -5 5 -11 9 -27
9 -35z m18 28 c-3 -8 -6 -5 -6 6 -1 11 2 17 5 13 3 -3 4 -12 1 -19z m713 14
c0 -5 -7 -17 -15 -28 -14 -18 -14 -17 -4 9 12 27 19 34 19 19z m-368 -35 c-7
-8 -7 -18 -2 -27 6 -8 10 -22 9 -30 0 -8 -6 -1 -13 15 -12 27 -6 55 11 55 3 0
1 -6 -5 -13z m30 1 c-17 -17 -15 -24 9 -46 16 -16 19 -29 16 -63 l-4 -44 -1
48 c-1 26 -6 47 -12 47 -18 0 -32 40 -19 56 6 8 14 14 17 14 3 0 1 -5 -6 -12z
m29 -15 c-12 -20 -14 -14 -5 12 4 9 9 14 11 11 3 -2 0 -13 -6 -23z m70 -20
c-12 -20 -14 -14 -5 12 4 9 9 14 11 11 3 -2 0 -13 -6 -23z m343 -13 c4 -25 3
-31 -4 -20 -5 8 -10 26 -10 39 0 32 6 24 14 -19z m-134 27 c0 -2 -15 -16 -32
-33 l-33 -29 29 33 c28 30 36 37 36 29z m-130 -27 c-6 -11 -13 -20 -16 -20 -2
0 0 9 6 20 6 11 13 20 16 20 2 0 0 -9 -6 -20z m-123 -87 c-2 -21 -4 -6 -4 32
0 39 2 55 4 38 2 -18 2 -50 0 -70z m303 93 c0 -2 -8 -10 -17 -17 -16 -13 -17
-12 -4 4 13 16 21 21 21 13z m-167 -58 c-41 -62 -51 -73 -33 -38 14 28 59 90
65 90 2 0 -12 -24 -32 -52z m-236 -10 c-2 -13 -4 -5 -4 17 -1 22 1 32 4 23 2
-10 2 -28 0 -40z m130 20 c-3 -7 -5 -2 -5 12 0 14 2 19 5 13 2 -7 2 -19 0 -25z
m-269 15 c-10 -2 -26 -2 -35 0 -10 3 -2 5 17 5 19 0 27 -2 18 -5z m190 -59
l-3 -49 -5 57 c-3 31 -1 53 3 49 5 -5 7 -30 5 -57z m312 62 c0 -2 -33 -32 -72
-66 l-73 -62 70 66 c70 65 75 70 75 62z m75 -6 c4 -6 3 -9 -2 -8 -4 2 -30 -12
-58 -31 -57 -38 -50 -28 10 18 48 35 42 33 50 21z m-458 -47 c-3 -10 -5 -2 -5
17 0 19 2 27 5 18 2 -10 2 -26 0 -35z m180 25 c-3 -8 -6 -5 -6 6 -1 11 2 17 5
13 3 -3 4 -12 1 -19z m430 -110 c-2 -24 -4 -5 -4 42 0 47 2 66 4 43 2 -24 2
-62 0 -85z m-406 85 c-12 -20 -14 -14 -5 12 4 9 9 14 11 11 3 -2 0 -13 -6 -23z
m99 24 c0 -2 -12 -14 -27 -28 l-28 -24 24 28 c23 25 31 32 31 24z m161 -20
c-10 -9 -11 -8 -5 6 3 10 9 15 12 12 3 -3 0 -11 -7 -18z m-481 -12 c0 -14 -2
-25 -4 -25 -2 0 -6 11 -8 25 -3 14 -1 25 3 25 5 0 9 -11 9 -25z m-63 8 c-20
-2 -52 -2 -70 0 -17 2 0 4 38 4 39 0 53 -2 32 -4z m250 -15 c-3 -8 -6 -5 -6 6
-1 11 2 17 5 13 3 -3 4 -12 1 -19z m653 18 c0 -2 -8 -10 -17 -17 -16 -13 -17
-12 -4 4 13 16 21 21 21 13z m-683 -53 c-3 -10 -5 -2 -5 17 0 19 2 27 5 18 2
-10 2 -26 0 -35z m303 42 c0 -2 -10 -9 -22 -15 -22 -11 -22 -10 -4 4 21 17 26
19 26 11z m130 -20 c0 -14 -4 -25 -9 -25 -4 0 -6 11 -3 25 2 14 6 25 8 25 2 0
4 -11 4 -25z m-713 9 c-3 -3 -12 -4 -19 -1 -8 3 -5 6 6 6 11 1 17 -2 13 -5z
m83 -14 c0 -11 -2 -20 -4 -20 -2 0 -6 9 -9 20 -3 11 -1 20 4 20 5 0 9 -9 9
-20z m560 5 c-14 -8 -29 -14 -35 -14 -5 0 1 6 15 14 14 8 30 14 35 14 6 0 -1
-6 -15 -14z m-442 -62 c1 17 8 27 17 27 11 0 15 -12 16 -42 l2 -43 7 35 7 35
2 -35 c1 -24 4 -31 10 -21 5 7 6 23 3 35 -3 11 -2 18 2 15 6 -6 12 -35 15 -72
1 -5 5 -6 10 -3 5 3 14 -1 21 -9 7 -8 17 -15 22 -15 12 0 5 25 -8 26 -26 2
-39 17 -40 44 -1 27 0 28 13 12 14 -16 14 -16 9 2 -5 15 -4 17 8 7 11 -9 20
-4 46 26 l32 38 -26 -37 c-15 -21 -22 -38 -17 -38 21 0 26 2 24 9 -1 4 4 8 12
8 8 0 12 -4 9 -8 -2 -4 -1 -9 3 -12 5 -2 2 -2 -5 -1 -7 2 -15 -9 -18 -26 -9
-43 -65 -83 -80 -58 -5 7 -2 8 6 3 8 -5 11 -3 8 5 -2 7 -12 14 -22 16 -12 2
-16 -2 -12 -12 3 -9 1 -12 -4 -9 -6 3 -10 2 -10 -4 0 -5 8 -12 18 -14 16 -4
16 -5 0 -6 -21 -1 -49 49 -59 104 -6 36 -7 37 -8 9 -1 -25 -6 -33 -26 -36 -24
-5 -25 -4 -23 46 l1 51 7 -45 7 -45 3 55 3 55 7 -50 c4 -28 8 -38 8 -22z m282
63 c0 -2 -8 -10 -17 -17 -16 -13 -17 -12 -4 4 13 16 21 21 21 13z m440 0 c0
-2 -8 -10 -17 -17 -16 -13 -17 -12 -4 4 13 16 21 21 21 13z m30 -16 c-6 -11
-13 -20 -16 -20 -2 0 0 9 6 20 6 11 13 20 16 20 2 0 0 -9 -6 -20z m-653 -22
c-3 -8 -6 -5 -6 6 -1 11 2 17 5 13 3 -3 4 -12 1 -19z m44 -1 c-10 -9 -11 -8
-5 6 3 10 9 15 12 12 3 -3 0 -11 -7 -18z m169 18 c0 -2 -10 -9 -22 -15 -22
-11 -22 -10 -4 4 21 17 26 19 26 11z m-370 -85 l-11 -25 6 25 c2 14 6 39 6 55
l2 30 4 -30 c2 -17 -1 -42 -7 -55z m300 76 c0 -2 -8 -10 -17 -17 -16 -13 -17
-12 -4 4 13 16 21 21 21 13z m120 -6 c-8 -5 -19 -10 -25 -10 -5 0 -3 5 5 10 8
5 20 10 25 10 6 0 3 -5 -5 -10z m320 5 c0 -6 -56 -35 -67 -35 -4 1 8 9 27 20
39 22 40 22 40 15z m-98 -57 c2 -21 0 -38 -4 -38 -4 0 -8 21 -7 48 1 52 6 48
11 -10z m128 36 c-8 -8 -23 -20 -34 -25 -13 -7 -9 -1 9 15 34 29 43 33 25 10z
m-824 -18 c-5 -19 -2 -24 11 -22 10 2 21 14 24 27 7 22 7 23 8 2 2 -37 -8 -50
-35 -45 -13 2 -24 7 -24 11 0 14 13 51 17 51 3 0 2 -11 -1 -24z m21 -8 c-3 -7
-5 -2 -5 12 0 14 2 19 5 13 2 -7 2 -19 0 -25z m353 27 c0 -2 -10 -9 -22 -15
-22 -11 -22 -10 -4 4 21 17 26 19 26 11z m20 -20 c-14 -8 -29 -14 -35 -14 -5
0 1 6 15 14 14 8 30 14 35 14 6 0 -1 -6 -15 -14z m226 -31 c-3 -8 -13 -13 -23
-13 -17 1 -17 2 0 6 10 3 17 15 18 31 1 18 3 21 6 9 3 -10 2 -25 -1 -33z m-19
30 c-3 -3 -12 -4 -19 -1 -8 3 -5 6 6 6 11 1 17 -2 13 -5z m-172 -14 c-11 -5
-27 -9 -35 -9 -9 0 -8 4 5 9 11 5 27 9 35 9 9 0 8 -4 -5 -9z m321 -15 c-11 -8
-25 -15 -30 -15 -6 1 0 7 14 15 32 19 40 18 16 0z m-441 -29 c-1 -38 -16 -61
-56 -82 -44 -22 -48 -16 -5 9 22 12 42 28 44 36 3 10 -5 7 -23 -7 -15 -12 -33
-22 -39 -22 -6 0 4 9 22 20 21 13 35 31 39 50 8 41 20 38 18 -4z m22 2 c-3 -7
-5 -2 -5 12 0 14 2 19 5 13 2 -7 2 -19 0 -25z m150 26 c-3 -3 -12 -4 -19 -1
-8 3 -5 6 6 6 11 1 17 -2 13 -5z m-50 -10 c-3 -3 -12 -4 -19 -1 -8 3 -5 6 6 6
11 1 17 -2 13 -5z m-450 -26 c-3 -8 -6 -5 -6 6 -1 11 2 17 5 13 3 -3 4 -12 1
-19z m147 6 c3 -8 2 -12 -4 -9 -6 3 -10 10 -10 16 0 14 7 11 14 -7z m241 6
c-17 -7 -14 -9 15 -11 l35 -2 -35 -6 c-22 -4 7 -8 80 -12 l115 -5 -115 0
c-111 1 -115 2 -118 24 -3 17 1 22 20 21 22 0 22 -1 3 -9z m198 3 c-7 -2 -21
-2 -30 0 -10 3 -4 5 12 5 17 0 24 -2 18 -5z m-626 -35 c-3 -7 -5 -2 -5 12 0
14 2 19 5 13 2 -7 2 -19 0 -25z m20 10 c-3 -8 -6 -5 -6 6 -1 11 2 17 5 13 3
-3 4 -12 1 -19z m70 0 c-3 -8 -6 -5 -6 6 -1 11 2 17 5 13 3 -3 4 -12 1 -19z
m77 -13 l17 -30 -20 24 c-12 13 -21 28 -21 34 0 12 0 11 24 -28z m394 28 c-10
-2 -28 -2 -40 0 -13 2 -5 4 17 4 22 1 32 -1 23 -4z m149 -25 c-3 -7 -5 -2 -5
12 0 14 2 19 5 13 2 -7 2 -19 0 -25z m-34 5 c-7 -2 -19 -2 -25 0 -7 3 -2 5 12
5 14 0 19 -2 13 -5z m-626 -25 c-3 -8 -6 -5 -6 6 -1 11 2 17 5 13 3 -3 4 -12
1 -19z m713 12 c-8 -5 -19 -10 -25 -10 -5 0 -3 5 5 10 8 5 20 10 25 10 6 0 3
-5 -5 -10z m-733 -22 c-3 -8 -6 -5 -6 6 -1 11 2 17 5 13 3 -3 4 -12 1 -19z
m145 -33 c11 -21 8 -18 -32 30 -24 29 -24 29 -2 10 13 -11 28 -29 34 -40z
m183 17 l-28 -27 24 31 c13 17 26 30 28 27 3 -2 -8 -16 -24 -31z m315 23 c0
-8 -7 -15 -15 -15 -13 0 -14 3 -3 15 16 18 18 18 18 0z m-550 -64 c0 -10 -49
53 -50 63 0 6 11 -5 25 -24 14 -19 25 -36 25 -39z m266 41 c-17 -16 -18 -16
-5 5 7 12 15 20 18 17 3 -2 -3 -12 -13 -22z m48 21 c-5 -5 -12 -12 -16 -18 -4
-6 -8 -2 -8 8 0 9 7 17 17 17 9 0 12 -3 7 -7z m283 1 c-3 -3 -12 -4 -19 -1 -8
3 -5 6 6 6 11 1 17 -2 13 -5z m-596 -21 c13 -16 12 -17 -3 -4 -10 7 -18 15
-18 17 0 8 8 3 21 -13z m377 10 c-10 -2 -26 -2 -35 0 -10 3 -2 5 17 5 19 0 27
-2 18 -5z m309 -11 c-10 -10 -15 -21 -12 -24 3 -3 -5 -13 -17 -24 l-23 -19 19
23 c11 12 15 22 11 22 -4 0 0 9 10 20 10 11 20 20 23 20 3 0 -2 -8 -11 -18z
m113 14 c0 -2 -8 -10 -17 -17 -16 -13 -17 -12 -4 4 13 16 21 21 21 13z m-958
-15 c6 10 8 6 4 -11 -3 -14 -3 -19 0 -12 3 6 10 10 15 7 5 -4 6 2 3 12 -5 15
-4 16 5 3 15 -21 14 -27 -9 -33 -19 -5 -41 18 -39 40 0 4 3 2 6 -6 5 -11 7
-11 15 0z m641 2 c-13 -2 -33 -2 -45 0 -13 2 -3 4 22 4 25 0 35 -2 23 -4z
m-2478 -23 c-10 -11 -22 -20 -28 -20 -5 0 1 9 14 20 31 25 37 25 14 0z m1949
-29 c-5 -7 -24 11 -35 32 -11 20 -9 20 13 -3 13 -14 23 -27 22 -29z m-1920 2
c-11 -15 -26 -29 -33 -31 -7 -2 -1 7 13 22 14 14 26 31 26 37 0 7 3 9 7 6 4
-4 -2 -19 -13 -34z m2333 31 c-3 -3 -12 -4 -19 -1 -8 3 -5 6 6 6 11 1 17 -2
13 -5z m224 -21 c-12 -20 -14 -14 -5 12 4 9 9 14 11 11 3 -2 0 -13 -6 -23z
m198 -9 c-18 -20 -47 -45 -64 -57 -16 -11 -3 5 30 36 68 64 86 75 34 21z
m-3028 12 c42 -17 83 -60 76 -78 -4 -9 -6 -9 -6 3 -2 26 -47 60 -88 65 -40 5
-90 -15 -86 -34 2 -6 -4 -9 -12 -6 -21 8 -20 10 28 38 50 30 45 30 88 12z m63
-7 c14 -11 26 -26 26 -32 0 -7 -8 -2 -18 10 -9 12 -28 27 -42 32 -15 6 -18 10
-9 10 9 1 28 -8 43 -20z m631 11 c3 -5 15 -10 26 -10 18 0 20 -6 17 -77 l-3
-78 -55 0 -55 0 -3 78 c-3 71 -1 77 17 77 11 0 23 5 26 10 3 6 10 10 15 10 5
0 12 -4 15 -10z m1682 4 c-3 -3 -12 -4 -19 -1 -8 3 -5 6 6 6 11 1 17 -2 13 -5z
m58 -4 c-3 -5 -12 -10 -18 -10 -7 0 -6 4 3 10 19 12 23 12 15 0z m85 7 c0 -2
-15 -16 -32 -33 l-33 -29 29 33 c28 30 36 37 36 29z m143 -4 c-7 -2 -19 -2
-25 0 -7 3 -2 5 12 5 14 0 19 -2 13 -5z m144 1 c-3 -3 -12 -4 -19 -1 -8 3 -5
6 6 6 11 1 17 -2 13 -5z m153 2 c0 -2 -8 -10 -17 -17 -16 -13 -17 -12 -4 4 13
16 21 21 21 13z m-982 -19 c-1 -2 4 -12 12 -23 14 -19 14 -19 -7 0 -13 10 -20
23 -17 28 3 5 8 7 11 4 2 -2 3 -6 1 -9z m297 -8 c-4 -5 -14 -8 -23 -8 -15 1
-15 2 1 6 9 2 14 9 11 15 -4 7 -2 8 5 4 6 -4 9 -12 6 -17z m195 16 c0 -7 -63
-45 -75 -45 -5 0 8 11 30 24 47 28 45 27 45 21z m273 -2 c-7 -2 -21 -2 -30 0
-10 3 -4 5 12 5 17 0 24 -2 18 -5z m-2555 -10 c-10 -2 -28 -2 -40 0 -13 2 -5
4 17 4 22 1 32 -1 23 -4z m1969 1 c-3 -3 -12 -4 -19 -1 -8 3 -5 6 6 6 11 1 17
-2 13 -5z m-1757 -56 c0 -10 -4 -18 -10 -18 -5 0 -10 6 -10 13 0 6 -3 23 -6
37 -5 24 -5 24 10 6 9 -11 16 -28 16 -38z m1621 35 c13 -16 12 -17 -3 -4 -17
13 -22 21 -14 21 2 0 10 -8 17 -17z m49 10 c-8 -3 -18 -11 -22 -17 -5 -7 -8
-4 -8 7 0 11 7 17 23 16 15 0 17 -2 7 -6z m290 -3 c-8 -5 -24 -9 -35 -9 -16 1
-16 2 5 9 35 11 48 11 30 0z m190 -1 c12 -9 12 -10 -4 -5 -10 4 -26 1 -35 -6
-14 -12 -14 -11 -2 5 16 20 21 21 41 6z m370 7 c0 -3 -15 -14 -32 -26 l-33
-22 30 26 c31 27 35 29 35 22z m42 -8 c-6 -7 -25 -22 -44 -32 -39 -23 -32 -13
14 20 38 26 45 29 30 12z m-775 -5 c-20 -2 -52 -2 -70 0 -17 2 0 4 38 4 39 0
53 -2 32 -4z m483 -7 c0 -8 -5 -18 -12 -22 -7 -5 -8 -3 -3 6 4 7 2 16 -6 21
-11 7 -10 9 4 9 9 0 17 -6 17 -14z m140 -5 c-5 -11 -15 -23 -21 -27 -6 -3 -3
5 6 20 20 30 30 35 15 7z m60 15 c0 -2 -8 -10 -17 -17 -16 -13 -17 -12 -4 4
13 16 21 21 21 13z m200 1 c0 -2 -15 -16 -32 -33 l-33 -29 29 33 c28 30 36 37
36 29z m-3382 -70 l3 -58 -53 3 c-46 3 -53 6 -56 26 -2 15 2 22 12 22 9 0 16
7 16 15 0 8 9 15 20 15 14 0 20 7 20 21 0 14 5 19 18 17 13 -2 18 -15 20 -61z
m311 54 c8 -5 -5 -7 -35 -4 -27 3 -51 7 -53 9 -9 8 75 3 88 -5z m332 -19 c-16
-30 -61 -62 -85 -61 -14 0 -10 4 14 12 19 7 43 26 55 43 22 34 33 38 16 6z
m2384 -2 c-9 -16 -17 -30 -19 -30 -3 0 1 14 7 30 6 17 15 30 19 30 5 0 2 -13
-7 -30z m65 21 c0 -5 -9 -19 -20 -32 l-20 -24 17 32 c19 34 23 39 23 24z
m-2572 -8 c-10 -2 -28 -2 -40 0 -13 2 -5 4 17 4 22 1 32 -1 23 -4z m2022 -3
c0 -6 -30 -9 -72 -8 l-73 2 70 6 c39 4 71 7 73 8 1 1 2 -2 2 -8z m67 -10 c3
-10 2 -11 -4 -4 -4 6 -15 14 -23 17 -11 5 -9 6 4 4 11 -1 21 -9 23 -17z m73
10 c-8 -5 -19 -10 -25 -10 -5 0 -3 5 5 10 8 5 20 10 25 10 6 0 3 -5 -5 -10z
m236 -38 c-5 -4 -86 36 -86 43 0 3 20 -5 45 -17 24 -12 43 -23 41 -26z m19 38
c13 -6 15 -9 5 -9 -8 0 -22 4 -30 9 -18 12 -2 12 25 0z m-2745 -4 c0 -2 -8
-10 -17 -17 -16 -13 -17 -12 -4 4 13 16 21 21 21 13z m189 -37 c18 -30 -2 -21
-28 13 -21 26 -22 29 -4 18 11 -7 25 -21 32 -31z m1985 12 c-2 -3 -12 3 -22
13 -16 17 -16 18 5 5 12 -7 20 -15 17 -18z m447 12 c11 -15 11 -16 -1 -6 -9 9
-19 9 -34 2 -20 -10 -20 -10 -2 5 24 19 21 20 37 -1z m319 2 c-7 -8 -9 -15 -5
-15 4 0 1 -8 -6 -17 -12 -15 -12 -16 4 -10 27 10 20 2 -24 -28 -23 -15 -38
-21 -34 -15 5 8 3 11 -6 8 -8 -3 -14 -10 -14 -15 0 -6 -4 -15 -9 -20 -5 -5 -6
-2 -1 6 5 9 3 12 -6 9 -8 -3 -14 -10 -14 -16 0 -5 -4 -14 -9 -19 -5 -5 -6 -2
-1 6 5 9 3 12 -6 9 -8 -3 -13 -10 -12 -16 2 -6 -7 -16 -20 -22 -21 -11 -21
-10 -3 4 11 9 17 16 14 16 -13 0 -132 -59 -119 -60 8 0 11 -3 8 -6 -4 -4 -13
-1 -22 6 -12 10 -16 9 -21 -4 -3 -9 -10 -14 -14 -11 -5 3 -19 1 -32 -4 -22 -9
-22 -10 7 -12 l30 -1 -30 -7 c-16 -4 -32 -3 -35 1 -10 14 -78 -11 -76 -29 0
-9 -6 -18 -14 -20 -13 -4 -13 -3 0 6 20 14 0 34 -24 25 -14 -5 -15 -9 -4 -15
9 -6 9 -9 1 -9 -6 0 -14 4 -17 9 -4 5 -30 12 -59 16 -44 6 -98 24 -74 25 4 0
1 13 -8 30 -8 16 -15 35 -15 42 0 7 10 -8 23 -32 19 -39 27 -45 55 -47 27 -1
32 2 27 15 -5 14 -4 14 13 -1 10 -9 27 -17 37 -17 17 0 17 1 -1 23 l-19 22 26
-22 c25 -23 76 -33 64 -13 -4 6 -3 10 2 9 4 -1 17 -1 27 0 18 1 18 3 -5 29
l-24 27 30 -27 c22 -20 37 -26 53 -21 23 6 22 7 -20 52 l-43 46 46 -43 c49
-46 67 -47 93 -8 11 18 12 26 3 36 -9 9 -6 9 10 -1 12 -7 19 -17 16 -23 -4 -5
9 2 28 17 25 18 39 24 47 17 7 -6 10 -7 7 -4 -3 4 1 14 8 23 11 14 10 15 -8 1
-19 -14 -19 -14 -6 3 10 12 17 14 26 7 9 -7 16 -6 25 5 7 8 16 13 20 10 4 -3
14 3 21 12 12 14 12 16 0 8 -10 -5 -12 -4 -7 4 4 6 11 9 16 6 4 -3 13 2 20 10
7 8 16 13 20 10 4 -2 15 4 25 15 21 23 33 27 15 5z m269 -32 c-2 -32 -3 -34
-6 -9 l-5 28 -31 -28 c-30 -28 -30 -27 2 9 19 20 36 37 38 37 2 0 2 -17 2 -37z
m-3100 18 c10 -6 0 -8 -27 -4 -34 5 -42 3 -42 -10 0 -9 10 -18 23 -20 19 -4
18 -4 -5 -6 -21 -1 -28 4 -28 17 0 10 3 22 7 25 9 10 56 8 72 -2z m2681 -11
c-6 -11 -13 -20 -16 -20 -2 0 0 9 6 20 6 11 13 20 16 20 2 0 0 -9 -6 -20z
m210 15 c0 -2 -10 -9 -22 -15 -22 -11 -22 -10 -4 4 21 17 26 19 26 11z m-623
-11 c-3 -3 -12 -4 -19 -1 -8 3 -5 6 6 6 11 1 17 -2 13 -5z m103 -4 c-8 -5 -19
-10 -25 -10 -5 0 -3 5 5 10 8 5 20 10 25 10 6 0 3 -5 -5 -10z m360 -5 c-6 -8
-8 -20 -4 -27 4 -7 3 -10 -1 -5 -5 4 -17 -1 -29 -10 -12 -12 -9 -4 8 20 16 20
31 37 33 37 3 0 0 -7 -7 -15z m280 10 c0 -2 -10 -9 -22 -15 -22 -11 -22 -10
-4 4 21 17 26 19 26 11z m-2555 -101 c17 -68 20 -97 6 -75 -7 11 -10 10 -14
-5 -2 -10 -2 5 1 35 4 40 2 52 -6 47 -8 -5 -12 4 -12 28 0 19 -4 38 -10 41 -5
3 -10 11 -10 18 0 26 31 -35 45 -89z m1591 81 c8 -19 -4 -85 -15 -85 -15 0
-33 52 -21 64 7 7 10 3 10 -12 0 -12 5 -22 10 -22 6 0 10 14 10 31 0 17 -4 28
-10 24 -5 -3 -10 -1 -10 4 0 16 20 13 26 -4z m152 8 c-16 -2 -40 -2 -55 0 -16
2 -3 4 27 4 30 0 43 -2 28 -4z m228 -13 c0 -12 -4 -16 -9 -11 -5 5 -6 14 -3
20 10 15 12 14 12 -9z m85 3 c13 -16 12 -17 -3 -5 -9 8 -22 11 -28 7 -8 -5 0
-20 22 -44 l33 -36 -37 34 c-29 27 -35 38 -27 48 15 17 24 16 40 -4z m79 -9
c0 -2 -9 0 -20 6 -11 6 -20 13 -20 16 0 2 9 0 20 -6 11 -6 20 -13 20 -16z
m330 21 c0 -2 -13 -11 -30 -20 -38 -19 -40 -11 -2 9 31 17 32 18 32 11z m-220
-9 c0 -2 -8 -10 -17 -17 -16 -13 -17 -12 -4 4 13 16 21 21 21 13z m-2823 -38
c-3 -7 -5 -2 -5 12 0 14 2 19 5 13 2 -7 2 -19 0 -25z m223 -7 c-14 -27 -22
-26 -37 4 -8 19 -8 23 0 18 22 -14 37 -11 38 5 0 10 3 12 5 5 3 -7 0 -21 -6
-32z m2860 34 c0 -2 -10 -9 -22 -15 -22 -11 -22 -10 -4 4 21 17 26 19 26 11z
m-2580 -8 c0 -2 -12 -14 -27 -28 l-28 -24 24 28 c23 25 31 32 31 24z m1883 -4
c-7 -2 -19 -2 -25 0 -7 3 -2 5 12 5 14 0 19 -2 13 -5z m288 -10 c13 -16 12
-17 -3 -4 -17 13 -22 21 -14 21 2 0 10 -8 17 -17z m109 14 c0 -2 -12 -14 -27
-28 l-28 -24 24 28 c23 25 31 32 31 24z m-2810 -27 c0 -13 -6 -20 -17 -19 -11
0 -13 3 -5 6 6 2 12 11 12 19 0 8 2 14 5 14 3 0 5 -9 5 -20z m181 3 c13 -16
12 -17 -3 -4 -10 7 -18 15 -18 17 0 8 8 3 21 -13z m2167 10 c-10 -2 -28 -2
-40 0 -13 2 -5 4 17 4 22 1 32 -1 23 -4z m203 -20 c13 -16 12 -17 -3 -4 -10 7
-18 15 -18 17 0 8 8 3 21 -13z m74 -23 c21 -22 37 -40 34 -40 -3 0 -23 18 -44
40 -21 22 -37 40 -34 40 3 0 23 -18 44 -40z m615 36 c0 -2 -8 -10 -17 -17 -16
-13 -17 -12 -4 4 13 16 21 21 21 13z m-3297 -25 c-22 -6 -22 -7 7 -23 28 -16
30 -16 31 0 0 14 2 13 8 -3 12 -30 6 -30 -43 -4 -32 17 -42 27 -35 35 5 7 20
9 32 6 l22 -6 -22 -5z m155 12 c-10 -2 -26 -2 -35 0 -10 3 -2 5 17 5 19 0 27
-2 18 -5z m2412 -13 c6 -11 8 -20 6 -20 -3 0 -10 9 -16 20 -6 11 -8 20 -6 20
3 0 10 -9 16 -20z m235 2 c-3 -3 -11 0 -18 7 -9 10 -8 11 6 5 10 -3 15 -9 12
-12z m385 13 c0 -3 -31 -21 -70 -40 -38 -19 -70 -33 -70 -30 0 4 126 72 138
75 1 0 2 -2 2 -5z m-2586 -18 c-6 -16 -57 -47 -76 -47 -7 1 1 7 17 14 17 7 36
20 44 29 16 20 22 22 15 4z m191 -7 c10 -11 16 -20 13 -20 -3 0 -13 9 -23 20
-10 11 -16 20 -13 20 3 0 13 -9 23 -20z m1542 -10 c1 -22 1 -22 -4 -2 -5 26
-20 29 -26 5 -3 -13 -5 -12 -6 5 -1 17 4 23 17 20 10 -2 18 -13 19 -28z m143
23 c0 -5 -11 -8 -24 -8 -13 0 -22 3 -19 8 2 4 13 7 24 7 10 0 19 -3 19 -7z
m-2220 -45 c0 -5 4 -7 9 -4 5 4 11 0 14 -6 3 -9 12 -6 29 10 13 12 31 22 39
21 11 0 11 -2 -1 -6 -8 -3 -28 -17 -44 -30 l-29 -24 -15 23 c-9 13 -26 31 -37
41 -19 18 -19 18 8 1 15 -9 27 -21 27 -26z m18 17 c-3 -3 -9 2 -12 12 -6 14
-5 15 5 6 7 -7 10 -15 7 -18z m2982 20 c0 -6 -56 -35 -67 -35 -4 1 8 9 27 20
39 22 40 22 40 15z m-2767 -12 c-7 -2 -21 -2 -30 0 -10 3 -4 5 12 5 17 0 24
-2 18 -5z m1789 -12 c6 10 7 7 3 -10 -5 -16 -4 -21 4 -17 6 4 11 1 12 -6 0
-10 2 -10 6 0 3 9 12 3 24 -18 11 -17 23 -28 28 -25 5 3 12 1 16 -4 3 -6 -3
-8 -15 -6 -29 6 -40 14 -40 31 0 8 -5 12 -11 9 -16 -11 -59 34 -51 54 6 14 7
14 10 -3 3 -15 6 -16 14 -5z m125 -3 c-3 -8 -6 -5 -6 6 -1 11 2 17 5 13 3 -3
4 -12 1 -19z m913 0 c0 -18 -2 -20 -9 -8 -6 8 -7 18 -5 22 9 14 14 9 14 -14z
m-3350 -14 c0 -2 -15 -4 -32 -4 -23 0 -29 3 -19 9 12 8 51 4 51 -5z m127 10
c-3 -3 -12 -4 -19 -1 -8 3 -5 6 6 6 11 1 17 -2 13 -5z m93 -4 c11 -8 7 -9 -15
-4 -37 8 -45 14 -19 14 10 0 26 -5 34 -10z m440 -15 c-18 -21 -64 -45 -87 -45
-10 1 0 7 22 15 22 8 47 23 55 33 8 11 17 18 19 16 2 -2 -2 -11 -9 -19z m2320
21 c0 -2 -8 -10 -17 -17 -16 -13 -17 -12 -4 4 13 16 21 21 21 13z m-2937 -34
c14 -15 28 -17 75 -14 42 3 68 -1 90 -12 44 -23 40 -28 -5 -9 -25 10 -56 14
-91 11 -47 -4 -57 -2 -78 19 -13 12 -19 23 -15 23 4 0 15 -8 24 -18z m227 -7
c13 -14 21 -25 18 -25 -2 0 -15 11 -28 25 -13 14 -21 25 -18 25 2 0 15 -11 28
-25z m2192 -20 c9 -20 9 -20 -6 -1 -9 11 -16 27 -15 35 0 14 1 14 6 1 3 -8 10
-24 15 -35z m-2572 31 c0 -2 -7 -9 -15 -16 -13 -11 -14 -10 -9 4 5 14 24 23
24 12z m3110 0 c0 -2 -8 -10 -17 -17 -16 -13 -17 -12 -4 4 13 16 21 21 21 13z
m359 -34 c0 -24 -1 -25 -9 -7 -12 28 -12 47 0 40 6 -3 10 -18 9 -33z m-210 24
c-2 -2 -15 -9 -29 -15 -24 -11 -24 -11 -6 3 16 13 49 24 35 12z m-3191 -13
c-10 -2 -28 -2 -40 0 -13 2 -5 4 17 4 22 1 32 -1 23 -4z m472 -58 c8 0 17 10
20 22 l5 21 18 -24 c14 -19 15 -23 2 -18 -8 4 -21 1 -29 -5 -19 -16 -45 -3
-52 25 -7 27 -22 31 -30 9 -3 -8 -21 -20 -40 -27 -19 -6 -34 -16 -34 -21 0 -4
-5 -5 -10 -2 -15 9 -2 25 20 25 11 0 34 13 52 29 l33 30 15 -32 c8 -18 22 -32
30 -32z m2480 60 c0 -6 -56 -35 -67 -35 -4 1 8 9 27 20 39 22 40 22 40 15z
m130 1 c0 -2 -17 -16 -37 -31 l-38 -26 35 30 c34 31 40 35 40 27z m-3014 -22
c19 -15 19 -15 -1 -6 -11 5 -27 12 -35 15 -13 5 -13 6 1 6 8 1 24 -6 35 -15z
m2934 12 c0 -2 -8 -10 -17 -17 -16 -13 -17 -12 -4 4 13 16 21 21 21 13z
m-3090 -10 c0 -2 -8 -10 -17 -17 -16 -13 -17 -12 -4 4 13 16 21 21 21 13z
m3220 -1 c0 -2 -10 -9 -22 -15 -22 -11 -22 -10 -4 4 21 17 26 19 26 11z
m-3039 -65 c-16 -24 -16 -24 -19 -2 -2 15 -14 25 -35 31 -21 6 -25 10 -12 10
11 1 31 -6 43 -15 21 -15 22 -14 23 13 0 24 2 25 8 8 5 -13 2 -29 -8 -45z
m666 38 c-3 -8 -6 -5 -6 6 -1 11 2 17 5 13 3 -3 4 -12 1 -19z m2603 18 c0 -2
-12 -11 -27 -20 l-28 -17 24 20 c23 21 31 25 31 17z m-2670 -16 c-8 -5 -19
-10 -25 -10 -5 0 -3 5 5 10 8 5 20 10 25 10 6 0 3 -5 -5 -10z m59 -33 c1 -5
-3 -5 -9 -2 -5 3 -10 16 -9 28 0 21 1 21 9 2 5 -11 9 -24 9 -28z m2111 39 c0
-2 -9 -6 -20 -9 -11 -3 -18 -1 -14 4 5 9 34 13 34 5z m86 -11 c-11 -8 -25 -15
-30 -15 -6 1 0 7 14 15 32 19 40 18 16 0z m-2989 -1 c-3 -3 -12 -4 -19 -1 -8
3 -5 6 6 6 11 1 17 -2 13 -5z m196 -1 c-7 -2 -19 -2 -25 0 -7 3 -2 5 12 5 14
0 19 -2 13 -5z m3017 4 c0 -2 -10 -12 -22 -23 l-23 -19 19 23 c18 21 26 27 26
19z m232 -29 c-8 -8 -9 -4 -5 13 4 13 8 18 11 10 2 -7 -1 -18 -6 -23z m-3507
-2 c-13 -13 -36 -26 -52 -29 l-28 -6 28 12 c15 6 27 17 27 25 0 7 4 11 9 7 5
-3 12 -1 16 5 3 5 10 10 15 10 5 0 -2 -11 -15 -24z m348 10 c44 -18 70 -49 64
-78 -4 -22 -4 -22 -6 3 -1 33 -28 57 -83 74 -24 8 -35 14 -25 14 10 1 32 -5
50 -13z m380 -6 c9 -11 13 -20 9 -20 -4 0 -15 9 -25 20 -9 11 -13 20 -9 20 4
0 15 -9 25 -20z m84 -12 c-3 -7 -5 -2 -5 12 0 14 2 19 5 13 2 -7 2 -19 0 -25z
m1990 10 c-3 -8 -6 -5 -6 6 -1 11 2 17 5 13 3 -3 4 -12 1 -19z m383 18 c0 -2
-8 -10 -17 -17 -16 -13 -17 -12 -4 4 13 16 21 21 21 13z m-2410 -16 c0 -5 -5
-10 -11 -10 -5 0 -7 5 -4 10 3 6 8 10 11 10 2 0 4 -4 4 -10z m2057 -37 c-3
-10 -5 -2 -5 17 0 19 2 27 5 18 2 -10 2 -26 0 -35z m88 28 c-3 -6 -11 -11 -16
-11 -5 0 -4 6 3 14 14 16 24 13 13 -3z m-311 -7 c5 -14 4 -15 -9 -4 -17 14
-19 20 -6 20 5 0 12 -7 15 -16z m66 6 c8 -5 11 -10 5 -10 -5 0 -17 5 -25 10
-8 5 -10 10 -5 10 6 0 17 -5 25 -10z m305 0 c3 -6 -1 -7 -9 -4 -18 7 -21 14
-7 14 6 0 13 -4 16 -10z m-2857 -7 c-10 -2 -28 -2 -40 0 -13 2 -5 4 17 4 22 1
32 -1 23 -4z m2673 -10 c13 -16 12 -17 -3 -4 -17 13 -22 21 -14 21 2 0 10 -8
17 -17z m-2128 0 c-7 -2 -19 -2 -25 0 -7 3 -2 5 12 5 14 0 19 -2 13 -5z m220
-33 c2 -14 2 -19 0 -12 -3 8 -11 5 -24 -10 l-20 -23 17 27 c9 16 13 36 10 45
-5 12 -4 15 3 8 5 -5 11 -21 14 -35z m1710 -20 c12 -14 7 -11 -11 8 -31 31
-34 32 -39 13 -3 -12 -12 -21 -19 -21 -8 0 -14 -8 -15 -17 0 -12 -2 -14 -6 -5
-3 8 10 29 28 49 29 29 35 31 37 16 2 -10 14 -29 25 -43z m347 40 c-6 -11 -13
-20 -16 -20 -2 0 0 9 6 20 6 11 13 20 16 20 2 0 0 -9 -6 -20z m-2685 3 c-32
-2 -66 -9 -75 -16 -13 -11 -13 -10 -1 6 10 13 27 17 75 15 l61 -2 -60 -3z
m198 0 c-7 -2 -19 -2 -25 0 -7 3 -2 5 12 5 14 0 19 -2 13 -5z m3084 -51 c-4
-13 -5 -12 -6 5 0 12 -5 25 -11 28 -5 3 -10 11 -10 18 0 6 7 1 16 -11 8 -12
13 -30 11 -40z m-3554 31 c-3 -7 -6 -13 -8 -13 -2 0 -5 6 -8 13 -3 8 1 14 8
14 7 0 11 -6 8 -14z m371 8 c4 -5 -3 -7 -14 -4 -23 6 -26 13 -6 13 8 0 17 -4
20 -9z m2726 -1 c-8 -5 -19 -10 -25 -10 -5 0 -3 5 5 10 8 5 20 10 25 10 6 0 3
-5 -5 -10z m-2502 -7 c-10 -2 -28 -2 -40 0 -13 2 -5 4 17 4 22 1 32 -1 23 -4z
m2101 -19 c14 -12 -19 -1 -35 12 -18 14 -18 14 6 3 14 -6 27 -13 29 -15z m140
0 c14 -12 -19 -1 -35 12 -18 14 -18 14 6 3 14 -6 27 -13 29 -15z m331 21 c0
-2 -10 -9 -22 -15 -22 -11 -22 -10 -4 4 21 17 26 19 26 11z m-3260 -20 c-15
-9 -19 -15 -10 -15 8 0 3 -7 -12 -16 -40 -21 -35 -33 11 -27 21 3 46 1 54 -3
10 -6 -6 -9 -44 -8 -35 1 -59 -3 -59 -9 0 -6 -3 -8 -6 -4 -16 15 53 96 81 96
6 0 -1 -6 -15 -14z m67 9 c-3 -3 -12 -4 -19 -1 -8 3 -5 6 6 6 11 1 17 -2 13
-5z m142 -16 c-1 -16 -3 -18 -6 -6 -2 9 -14 19 -26 21 -18 4 -17 5 6 6 22 1
27 -3 26 -21z m281 -3 c0 -14 -4 -25 -9 -25 -4 0 -6 11 -3 25 2 14 6 25 8 25
2 0 4 -11 4 -25z m125 15 c-3 -5 -12 -10 -18 -10 -7 0 -6 4 3 10 19 12 23 12
15 0z m198 3 c-7 -2 -19 -2 -25 0 -7 3 -2 5 12 5 14 0 19 -2 13 -5z m2144 -15
c-3 -8 -6 -5 -6 6 -1 11 2 17 5 13 3 -3 4 -12 1 -19z m151 15 c-29 -3 -38 -10
-48 -34 -7 -16 -15 -28 -17 -25 -2 2 3 18 12 35 13 27 20 31 53 29 l37 -1 -37
-4z m512 4 c0 -2 -10 -12 -22 -23 l-23 -19 19 23 c18 21 26 27 26 19z m-599
-34 c-12 -20 -14 -14 -5 12 4 9 9 14 11 11 3 -2 0 -13 -6 -23z m446 21 c-3 -3
-12 -4 -19 -1 -8 3 -5 6 6 6 11 1 17 -2 13 -5z m-3370 -22 c-10 -10 -17 -25
-18 -33 0 -8 -4 -6 -8 6 -6 15 -3 23 13 32 29 17 32 16 13 -5z m301 11 c-15
-2 -42 -2 -60 0 -18 2 -6 4 27 4 33 0 48 -2 33 -4z m3009 1 c-3 -3 -12 -4 -19
-1 -8 3 -5 6 6 6 11 1 17 -2 13 -5z m-3360 -10 c-3 -3 -12 -4 -19 -1 -8 3 -5
6 6 6 11 1 17 -2 13 -5z m253 2 c0 -3 -4 -8 -10 -11 -5 -3 -10 -1 -10 4 0 6 5
11 10 11 6 0 10 -2 10 -4z m2290 -11 c-7 -8 -10 -25 -7 -37 5 -19 4 -20 -5 -7
-10 15 -15 15 -50 1 -42 -17 -47 -34 -21 -72 15 -23 16 -24 0 -12 -9 8 -19 22
-22 33 -8 24 -20 24 -45 -1 -18 -18 -20 -18 -20 -2 0 11 19 25 54 40 30 13 69
34 87 47 40 28 46 30 29 10z m288 8 c-10 -2 -26 -2 -35 0 -10 3 -2 5 17 5 19
0 27 -2 18 -5z m800 -24 c-3 -8 -7 -3 -11 10 -4 17 -3 21 5 13 5 -5 8 -16 6
-23z m-550 14 c-20 -2 -39 -11 -42 -19 -4 -11 5 -14 42 -16 45 -1 45 -2 8 -5
-54 -6 -70 2 -56 27 8 15 20 20 48 18 l37 -1 -37 -4z m-2600 -34 c14 0 13 -2
-3 -9 -31 -13 -33 -12 -27 18 4 19 7 22 10 10 2 -10 11 -18 20 -19z m387 21
c-3 -5 -12 -10 -18 -10 -7 0 -6 4 3 10 19 12 23 12 15 0z m1766 -7 c13 -16 12
-17 -3 -4 -17 13 -22 21 -14 21 2 0 10 -8 17 -17z m959 14 c0 -2 -10 -12 -22
-23 l-23 -19 19 23 c18 21 26 27 26 19z m68 -22 c-3 -3 -9 2 -12 12 -6 14 -5
15 5 6 7 -7 10 -15 7 -18z m-3445 8 c-7 -2 -19 -2 -25 0 -7 3 -2 5 12 5 14 0
19 -2 13 -5z m-159 -18 c-10 -8 -23 -15 -28 -15 -6 0 -1 7 10 15 10 8 23 15
28 15 6 0 1 -7 -10 -15z m621 -3 c-3 -3 -11 0 -18 7 -9 10 -8 11 6 5 10 -3 15
-9 12 -12z m2555 14 c0 -2 -8 -10 -17 -17 -16 -13 -17 -12 -4 4 13 16 21 21
21 13z m173 -3 c-7 -2 -19 -2 -25 0 -7 3 -2 5 12 5 14 0 19 -2 13 -5z m375
-45 c15 -6 30 -11 33 -10 3 0 6 -6 6 -14 0 -12 -3 -12 -17 1 -10 9 -24 13 -35
9 -14 -6 -16 -4 -10 6 6 10 4 12 -8 7 -9 -3 -19 -2 -22 3 -10 15 -23 12 -28
-7 -3 -12 -5 -9 -6 8 0 14 -7 31 -13 38 -7 7 6 4 30 -8 23 -12 55 -27 70 -33z
m-3395 35 c-23 -2 -64 -2 -90 0 -26 2 -7 3 42 3 50 0 71 -1 48 -3z m2233 -25
l29 -33 -32 29 c-31 28 -38 36 -30 36 2 0 16 -15 33 -32z m84 -5 c0 -7 -39 17
-46 28 -3 6 5 3 20 -6 14 -10 26 -19 26 -22z m167 31 c-3 -3 -12 -4 -19 -1 -8
3 -5 6 6 6 11 1 17 -2 13 -5z m83 2 c0 -2 -8 -10 -17 -17 -16 -13 -17 -12 -4
4 13 16 21 21 21 13z m-2187 -13 c-13 -2 -35 -2 -50 0 -16 2 -5 4 22 4 28 0
40 -2 28 -4z m181 -14 c-10 -12 -32 -30 -49 -41 -17 -12 -11 -4 15 20 49 45
64 54 34 21z m2326 18 c0 -2 -15 -16 -32 -33 l-33 -29 29 33 c28 30 36 37 36
29z m350 0 c0 -2 -12 -14 -27 -28 l-28 -24 24 28 c23 25 31 32 31 24z m37 -19
c-3 -8 -6 -5 -6 6 -1 11 2 17 5 13 3 -3 4 -12 1 -19z m-1163 -4 c3 -8 2 -12
-4 -9 -6 3 -10 10 -10 16 0 14 7 11 14 -7z m691 6 c-3 -5 -12 -10 -18 -10 -7
0 -6 4 3 10 19 12 23 12 15 0z m-2211 -16 c3 -8 2 -12 -4 -9 -6 3 -10 10 -10
16 0 14 7 11 14 -7z m1902 4 c4 -7 3 -8 -4 -4 -22 13 -12 -13 10 -28 12 -9 18
-16 12 -16 -17 0 -47 38 -39 49 8 14 12 14 21 -1z m94 8 c0 -2 -8 -10 -17 -17
-16 -13 -17 -12 -4 4 13 16 21 21 21 13z m377 -2 c-3 -3 -12 -4 -19 -1 -8 3
-5 6 6 6 11 1 17 -2 13 -5z m-3224 -11 c-7 -2 -19 -2 -25 0 -7 3 -2 5 12 5 14
0 19 -2 13 -5z m104 -12 c3 -10 12 -18 21 -16 10 1 11 0 5 -2 -7 -3 -13 -16
-13 -29 0 -15 -4 -23 -10 -19 -6 4 -8 10 -5 15 11 18 -7 59 -28 63 -21 4 -21
4 1 6 16 1 26 -6 29 -18z m2353 -6 c13 -14 21 -25 18 -25 -2 0 -15 11 -28 25
-13 14 -21 25 -18 25 2 0 15 -11 28 -25z m170 10 c14 -8 21 -14 15 -14 -5 0
-21 6 -35 14 -14 8 -20 14 -15 14 6 0 21 -6 35 -14z m317 9 c-3 -3 -12 -4 -19
-1 -8 3 -5 6 6 6 11 1 17 -2 13 -5z m80 0 c-3 -3 -12 -4 -19 -1 -8 3 -5 6 6 6
11 1 17 -2 13 -5z m152 3 c-2 -1 -13 -9 -24 -17 -19 -14 -19 -14 -6 3 7 9 18
17 24 17 6 0 8 -1 6 -3z m91 -1 c0 -3 -4 -8 -10 -11 -5 -3 -10 -1 -10 4 0 6 5
11 10 11 6 0 10 -2 10 -4z m-3365 -18 c6 0 19 3 30 7 18 7 18 6 -2 -9 -19 -14
-24 -14 -55 0 -22 10 -25 13 -8 9 14 -4 30 -7 35 -7z m398 -5 c-23 -2 -64 -2
-90 0 -26 2 -7 3 42 3 50 0 71 -1 48 -3z m1905 -4 c-10 -5 -18 -18 -19 -27 0
-11 -2 -12 -6 -4 -6 15 14 42 31 42 6 0 3 -5 -6 -11z m1537 1 c3 -5 13 -7 23
-4 14 5 14 4 2 -4 -8 -6 -19 -7 -25 -3 -5 5 -17 11 -25 14 -12 4 -12 6 2 6 9
1 19 -3 23 -9z m-1315 -35 c19 -19 32 -35 29 -35 -3 0 -20 16 -39 35 -19 19
-32 35 -29 35 3 0 20 -16 39 -35z m1131 12 c-10 -9 -11 -8 -5 6 3 10 9 15 12
12 3 -3 0 -11 -7 -18z m-3028 6 c-7 -2 -19 -2 -25 0 -7 3 -2 5 12 5 14 0 19
-2 13 -5z m2195 -31 c2 -17 -1 -32 -6 -32 -5 0 -7 13 -4 29 3 22 -1 30 -15 35
-16 4 -15 5 2 3 15 -2 21 -11 23 -35z m109 32 c-3 -3 -12 -4 -19 -1 -8 3 -5 6
6 6 11 1 17 -2 13 -5z m116 -1 c-7 -2 -19 -2 -25 0 -7 3 -2 5 12 5 14 0 19 -2
13 -5z m187 3 c0 -2 -8 -10 -17 -17 -16 -13 -17 -12 -4 4 13 16 21 21 21 13z
m-3190 -23 c0 -14 -2 -15 -9 -4 -5 8 -14 10 -21 6 -9 -5 -11 -4 -6 3 11 18 36
14 36 -5z m523 10 c-13 -2 -33 -2 -45 0 -13 2 -3 4 22 4 25 0 35 -2 23 -4z
m122 -8 c22 -8 31 -14 20 -14 -11 0 -31 6 -45 14 -32 18 -25 18 25 0z m218
-12 c11 -3 17 -15 17 -32 l-1 -26 -14 25 c-8 14 -14 20 -15 13 0 -6 -9 -10
-20 -8 -11 2 -20 -2 -20 -8 0 -9 -2 -9 -8 -1 -4 7 -16 14 -27 16 -17 3 -15 5
7 10 15 3 25 2 23 -2 -2 -4 3 -7 11 -7 12 0 13 3 2 13 -21 19 -78 6 -90 -22
-6 -13 -15 -21 -19 -18 -5 3 -9 1 -9 -5 0 -5 8 -15 18 -21 14 -9 13 -10 -8 -4
-23 6 -24 6 -10 -11 9 -11 10 -16 3 -11 -7 4 -13 3 -13 -2 0 -5 10 -14 23 -21
l22 -11 -23 6 c-22 5 -23 4 -13 -15 7 -12 22 -21 36 -21 13 0 31 -3 41 -7 13
-5 15 -3 9 8 -6 11 -5 11 5 2 7 -6 19 -9 26 -6 21 8 18 -32 -3 -48 -15 -11
-16 -11 -5 1 6 8 12 21 12 29 0 11 -5 10 -22 -5 -12 -10 -18 -14 -15 -8 8 14
-15 24 -46 23 -20 -1 -20 -2 3 -8 l25 -7 -27 -6 c-16 -3 -28 -1 -28 3 0 5 -8
6 -17 3 -14 -5 -15 -4 -4 4 10 7 10 14 2 30 -22 41 -6 143 20 127 5 -4 9 3 9
15 0 12 3 19 8 16 4 -2 18 2 31 9 18 9 33 10 55 3 17 -5 39 -12 49 -15z m77 9
c0 -4 -12 -13 -28 -19 l-27 -13 22 19 c12 10 19 22 15 26 -4 5 -1 5 6 1 6 -4
12 -10 12 -14z m1400 -14 c15 -21 17 -28 6 -19 -16 13 -41 51 -33 51 2 0 14
-15 27 -32z m955 22 c-3 -5 -12 -10 -18 -10 -7 0 -6 4 3 10 19 12 23 12 15 0z
m462 -12 c-3 -8 -6 -5 -6 6 -1 11 2 17 5 13 3 -3 4 -12 1 -19z m134 5 c13 -16
12 -17 -3 -4 -17 13 -22 21 -14 21 2 0 10 -8 17 -17z m-4100 -18 c14 9 11 -1
-4 -13 -10 -8 -13 -5 -14 16 0 15 1 19 4 9 2 -9 9 -15 14 -12z m272 18 c-7 -2
-19 -2 -25 0 -7 3 -2 5 12 5 14 0 19 -2 13 -5z m65 0 c-10 -2 -26 -2 -35 0
-10 3 -2 5 17 5 19 0 27 -2 18 -5z m2026 -8 c-4 -8 -11 -12 -16 -9 -6 4 -5 10
3 15 19 12 19 11 13 -6z m1863 8 c-25 -4 -27 -6 -15 -21 12 -15 11 -16 -4 -3
-23 17 -14 31 20 30 l27 -2 -28 -4z m-3622 -22 c-3 -6 -11 -11 -16 -11 -5 0
-4 6 3 14 14 16 24 13 13 -3z m2041 -13 l29 -33 -32 29 c-31 28 -38 36 -30 36
2 0 16 -15 33 -32z m376 3 c2 -17 1 -28 -4 -25 -8 5 -12 54 -4 54 2 0 6 -13 8
-29z m445 23 c-3 -3 -12 -4 -19 -1 -8 3 -5 6 6 6 11 1 17 -2 13 -5z m83 2 c0
-2 -8 -10 -17 -17 -16 -13 -17 -12 -4 4 13 16 21 21 21 13z m260 1 c0 -2 -12
-14 -27 -28 l-28 -24 24 28 c23 25 31 32 31 24z m-552 -14 c-10 -2 -26 -2 -35
0 -10 3 -2 5 17 5 19 0 27 -2 18 -5z m65 0 c-7 -2 -19 -2 -25 0 -7 3 -2 5 12
5 14 0 19 -2 13 -5z m644 -25 c-3 -8 -6 -5 -6 6 -1 11 2 17 5 13 3 -3 4 -12 1
-19z m577 13 c3 -4 -6 -6 -19 -3 -14 2 -25 6 -25 8 0 8 39 4 44 -5z m-4107 -7
c-3 -3 -12 -4 -19 -1 -8 3 -5 6 6 6 11 1 17 -2 13 -5z m60 -31 c-3 -10 -5 -4
-5 12 0 17 2 24 5 18 2 -7 2 -21 0 -30z m651 -22 l-1 -36 -4 35 c-3 19 -10 42
-16 50 -10 13 -10 13 6 1 11 -9 16 -26 15 -50z m1333 42 c13 -16 12 -17 -3 -4
-17 13 -22 21 -14 21 2 0 10 -8 17 -17z m-2404 1 c-3 -3 -12 -4 -19 -1 -8 3
-5 6 6 6 11 1 17 -2 13 -5z m210 -56 c-2 -13 -4 -3 -4 22 0 25 2 35 4 23 2
-13 2 -33 0 -45z m2087 46 c3 -8 2 -12 -4 -9 -6 3 -10 10 -10 16 0 14 7 11 14
-7z m496 6 c8 -5 11 -10 5 -10 -5 0 -17 5 -25 10 -8 5 -10 10 -5 10 6 0 17 -5
25 -10z m337 4 c-3 -3 -12 -4 -19 -1 -8 3 -5 6 6 6 11 1 17 -2 13 -5z m180 0
c-3 -3 -12 -4 -19 -1 -8 3 -5 6 6 6 11 1 17 -2 13 -5z m463 3 c0 -2 -17 -19
-37 -38 l-38 -34 34 38 c33 34 41 42 41 34z m-3867 -22 c4 -8 2 -17 -3 -20 -6
-4 -10 3 -10 14 0 25 6 27 13 6z m690 8 c-7 -2 -21 -2 -30 0 -10 3 -4 5 12 5
17 0 24 -2 18 -5z m447 -18 c0 -8 -3 -16 -7 -18 -5 -3 -8 5 -8 18 0 13 3 21 8
18 4 -2 7 -10 7 -18z m92 -12 c21 -20 38 -42 38 -47 0 -5 -7 -1 -16 10 -15 19
-15 18 -11 -4 3 -12 1 -20 -4 -16 -5 3 -9 16 -9 29 0 31 -17 42 -23 15 -4 -17
-4 -17 -3 2 1 13 -6 28 -14 35 -8 7 -11 13 -5 13 5 0 26 -17 47 -37z m2101 30
c-13 -2 -33 -2 -45 0 -13 2 -3 4 22 4 25 0 35 -2 23 -4z m-2565 -10 c-10 -2
-26 -2 -35 0 -10 3 -2 5 17 5 19 0 27 -2 18 -5z m219 1 c-3 -3 -12 -4 -19 -1
-8 3 -5 6 6 6 11 1 17 -2 13 -5z m1773 -41 c0 -8 -38 17 -51 33 -9 11 -2 9 19
-6 17 -13 32 -25 32 -27z m337 41 c-3 -3 -12 -4 -19 -1 -8 3 -5 6 6 6 11 1 17
-2 13 -5z m648 -4 c-3 -5 -12 -10 -18 -10 -7 0 -6 4 3 10 19 12 23 12 15 0z
m-2902 -7 c-7 -2 -21 -2 -30 0 -10 3 -4 5 12 5 17 0 24 -2 18 -5z m182 -3 c3
-6 -1 -7 -9 -4 -18 7 -21 14 -7 14 6 0 13 -4 16 -10z m80 -8 c-3 -3 -11 0 -18
7 -9 10 -8 11 6 5 10 -3 15 -9 12 -12z m1072 -4 c-3 -8 -6 -5 -6 6 -1 11 2 17
5 13 3 -3 4 -12 1 -19z m990 16 c-3 -3 -12 -4 -19 -1 -8 3 -5 6 6 6 11 1 17
-2 13 -5z m-3060 -10 c-3 -3 -12 -4 -19 -1 -8 3 -5 6 6 6 11 1 17 -2 13 -5z
m2553 -19 c13 -14 21 -25 18 -25 -2 0 -15 11 -28 25 -13 14 -21 25 -18 25 2 0
15 -11 28 -25z m557 19 c-3 -3 -12 -4 -19 -1 -8 3 -5 6 6 6 11 1 17 -2 13 -5z
m291 -1 c-10 -2 -28 -2 -40 0 -13 2 -5 4 17 4 22 1 32 -1 23 -4z m-3113 -13
c3 -5 1 -10 -4 -10 -6 0 -11 5 -11 10 0 6 2 10 4 10 3 0 8 -4 11 -10z m85 0
c0 -5 -7 -7 -15 -4 -11 4 -15 -1 -16 -17 0 -13 -3 -18 -6 -11 -7 19 4 42 22
42 8 0 15 -4 15 -10z m148 -22 c-2 -17 -10 -33 -18 -35 -12 -4 -13 -3 -1 5 8
6 12 20 9 36 -3 14 -1 26 4 26 5 0 8 -14 6 -32z m377 18 c17 -12 21 -12 33 3
11 14 12 13 3 -5 -7 -15 -7 -25 2 -35 7 -7 3 -6 -9 4 -13 10 -29 15 -40 11
-14 -4 -16 -3 -5 4 11 8 10 12 -5 21 -11 6 -14 11 -8 11 5 0 19 -6 29 -14z
m1565 -11 c13 -14 21 -25 18 -25 -2 0 -15 11 -28 25 -13 14 -21 25 -18 25 2 0
15 -11 28 -25z m788 18 c-21 -2 -55 -2 -75 0 -21 2 -4 4 37 4 41 0 58 -2 38
-4z m-3318 -7 c0 -2 -7 -7 -16 -10 -8 -3 -12 -2 -9 4 6 10 25 14 25 6z m187
-18 c-3 -8 -6 -5 -6 6 -1 11 2 17 5 13 3 -3 4 -12 1 -19z m1934 -11 c-10 -9
-11 -8 -5 6 3 10 9 15 12 12 3 -3 0 -11 -7 -18z m936 17 c-3 -3 -12 -4 -19 -1
-8 3 -5 6 6 6 11 1 17 -2 13 -5z m-2960 -10 c-3 -3 -12 -4 -19 -1 -8 3 -5 6 6
6 11 1 17 -2 13 -5z m257 -2 c3 -5 -1 -9 -9 -9 -8 0 -12 4 -9 9 3 4 7 8 9 8 2
0 6 -4 9 -8z m721 -10 c-3 -3 -11 0 -18 7 -9 10 -8 11 6 5 10 -3 15 -9 12 -12z
m2058 11 c-7 -2 -19 -2 -25 0 -7 3 -2 5 12 5 14 0 19 -2 13 -5z m-2475 -10
c-10 -2 -28 -2 -40 0 -13 2 -5 4 17 4 22 1 32 -1 23 -4z m1682 3 c0 -3 -4 -8
-10 -11 -5 -3 -10 -1 -10 4 0 6 5 11 10 11 6 0 10 -2 10 -4z m873 -3 c-7 -2
-21 -2 -30 0 -10 3 -4 5 12 5 17 0 24 -2 18 -5z m255 0 c-10 -2 -28 -2 -40 0
-13 2 -5 4 17 4 22 1 32 -1 23 -4z m-3018 -28 c0 -17 -5 -25 -17 -24 -11 0
-13 3 -5 6 6 2 12 13 12 24 0 10 2 19 5 19 3 0 5 -11 5 -25z m263 18 c-7 -2
-19 -2 -25 0 -7 3 -2 5 12 5 14 0 19 -2 13 -5z m242 -3 c3 -6 -1 -7 -9 -4 -18
7 -21 14 -7 14 6 0 13 -4 16 -10z m972 -27 c-3 -10 -5 -4 -5 12 0 17 2 24 5
18 2 -7 2 -21 0 -30z m90 0 c-3 -10 -5 -4 -5 12 0 17 2 24 5 18 2 -7 2 -21 0
-30z m564 20 c13 -16 12 -17 -3 -4 -10 7 -18 15 -18 17 0 8 8 3 21 -13z
m-2171 -7 c-7 -7 -13 -7 -20 0 -6 6 -3 10 10 10 13 0 16 -4 10 -10z m357 8
c-3 -3 -12 -4 -19 -1 -8 3 -5 6 6 6 11 1 17 -2 13 -5z m483 -15 c6 -11 10 -25
7 -32 -2 -6 -11 3 -19 21 -18 35 -6 45 12 11z m927 14 c-4 -3 1 -16 10 -27 18
-21 18 -21 -4 -2 -20 16 -23 36 -6 36 4 0 3 -3 0 -7z m203 -19 c0 -2 -9 0 -20
6 -11 6 -20 13 -20 16 0 2 9 0 20 -6 11 -6 20 -13 20 -16z m677 10 c-3 -3 -12
-4 -19 -1 -8 3 -5 6 6 6 11 1 17 -2 13 -5z m-2900 -24 c3 -10 2 -11 -4 -4 -4
7 -17 14 -28 17 -16 5 -15 5 4 4 14 -1 26 -9 28 -17z m131 13 c-16 -2 -40 -2
-55 0 -16 2 -3 4 27 4 30 0 43 -2 28 -4z m802 -17 c0 -1 -12 -13 -27 -26 l-28
-24 22 24 c21 22 21 24 5 37 -15 13 -14 13 6 3 12 -6 22 -12 22 -14z m750 9
c0 -8 -2 -15 -4 -15 -2 0 -6 7 -10 15 -3 8 -1 15 4 15 6 0 10 -7 10 -15z m671
-2 c13 -16 12 -17 -3 -4 -10 7 -18 15 -18 17 0 8 8 3 21 -13z m632 10 c-7 -2
-19 -2 -25 0 -7 3 -2 5 12 5 14 0 19 -2 13 -5z m90 -10 c-7 -2 -21 -2 -30 0
-10 3 -4 5 12 5 17 0 24 -2 18 -5z m225 0 c-10 -2 -28 -2 -40 0 -13 2 -5 4 17
4 22 1 32 -1 23 -4z m-3051 -9 c-3 -3 -12 -4 -19 -1 -8 3 -5 6 6 6 11 1 17 -2
13 -5z m726 -9 c-3 -9 -8 -14 -10 -11 -3 3 -2 9 2 15 9 16 15 13 8 -4z m107
-17 c0 -12 -6 -9 -26 13 -19 22 -19 22 4 8 12 -8 22 -17 22 -21z m-660 5 c0
-10 -4 -14 -8 -8 -4 6 -11 13 -16 18 -5 4 -2 7 7 7 10 0 17 -8 17 -17z m1184
2 c-4 -8 -8 -15 -10 -15 -2 0 -4 7 -4 15 0 8 4 15 10 15 5 0 7 -7 4 -15z m476
-10 c13 -14 21 -25 18 -25 -2 0 -15 11 -28 25 -13 14 -21 25 -18 25 2 0 15
-11 28 -25z m440 -1 c0 -2 -9 0 -20 6 -11 6 -20 13 -20 16 0 2 9 0 20 -6 11
-6 20 -13 20 -16z m1260 23 c0 -2 -10 -12 -22 -23 l-23 -19 19 23 c18 21 26
27 26 19z m-3957 -27 c-3 -12 -8 -19 -11 -16 -5 6 5 36 12 36 2 0 2 -9 -1 -20z
m530 13 c-7 -2 -21 -2 -30 0 -10 3 -4 5 12 5 17 0 24 -2 18 -5z m440 0 c-7 -2
-19 -2 -25 0 -7 3 -2 5 12 5 14 0 19 -2 13 -5z m2090 0 c-7 -2 -19 -2 -25 0
-7 3 -2 5 12 5 14 0 19 -2 13 -5z m-2610 -10 c-7 -2 -19 -2 -25 0 -7 3 -2 5
12 5 14 0 19 -2 13 -5z m240 0 c-7 -2 -21 -2 -30 0 -10 3 -4 5 12 5 17 0 24
-2 18 -5z m604 -15 c-3 -8 -6 -5 -6 6 -1 11 2 17 5 13 3 -3 4 -12 1 -19z
m1084 5 c13 -16 12 -17 -3 -4 -17 13 -22 21 -14 21 2 0 10 -8 17 -17z m762 10
c-7 -2 -19 -2 -25 0 -7 3 -2 5 12 5 14 0 19 -2 13 -5z m474 1 c-3 -3 -12 -4
-19 -1 -8 3 -5 6 6 6 11 1 17 -2 13 -5z m-3246 -22 c-7 -2 -18 1 -23 6 -8 8
-4 9 13 5 13 -4 18 -8 10 -11z m366 12 c-3 -3 -12 -4 -19 -1 -8 3 -5 6 6 6 11
1 17 -2 13 -5z m237 -10 c5 -14 4 -15 -9 -4 -17 14 -19 20 -6 20 5 0 12 -7 15
-16z m1256 -61 l75 -78 -77 75 c-43 41 -78 76 -78 77 0 8 11 -3 80 -74z m993
70 c-7 -2 -19 -2 -25 0 -7 3 -2 5 12 5 14 0 19 -2 13 -5z m280 0 c-7 -2 -19
-2 -25 0 -7 3 -2 5 12 5 14 0 19 -2 13 -5z m517 4 c0 -2 -15 -16 -32 -33 l-33
-29 29 33 c28 30 36 37 36 29z m-3822 -38 c-3 -8 -7 -3 -11 10 -4 17 -3 21 5
13 5 -5 8 -16 6 -23z m49 25 c-3 -3 -12 -4 -19 -1 -8 3 -5 6 6 6 11 1 17 -2
13 -5z m155 -24 c3 -17 1 -33 -4 -36 -4 -3 -8 11 -8 30 0 44 6 47 12 6z m165
23 c-22 -3 -27 -8 -22 -21 5 -13 3 -14 -6 -5 -17 17 -2 33 29 32 l27 -2 -28
-4z m478 -3 c-3 -5 -12 -10 -18 -10 -7 0 -6 4 3 10 19 12 23 12 15 0z m176 -7
c13 -16 12 -17 -3 -4 -17 13 -22 21 -14 21 2 0 10 -8 17 -17z m128 -32 c-1
-11 -3 -10 -7 4 l-5 20 -9 -20 c-8 -18 -8 -18 -4 3 2 12 0 22 -5 22 -5 0 -9 5
-9 12 0 6 9 3 20 -7 11 -10 19 -25 19 -34z m427 21 c-17 -16 -18 -16 -5 5 7
12 15 20 18 17 3 -2 -3 -12 -13 -22z m1591 21 c-20 -2 -52 -2 -70 0 -17 2 0 4
38 4 39 0 53 -2 32 -4z m-2241 -15 c4 -7 3 -8 -5 -4 -7 4 -19 5 -28 2 -13 -5
-13 -9 -2 -24 13 -15 12 -16 -4 -3 -13 10 -15 17 -6 27 14 17 35 18 45 2z
m616 -22 c9 5 9 3 0 -7 -12 -12 -16 -11 -29 8 l-15 23 -32 -21 -31 -21 30 26
30 26 17 -21 c10 -12 23 -18 30 -13z m349 7 c13 -16 12 -17 -3 -4 -10 7 -18
15 -18 17 0 8 8 3 21 -13z m254 -23 c21 -22 37 -40 34 -40 -3 0 -23 18 -44 40
-21 22 -37 40 -34 40 3 0 23 -18 44 -40z m90 20 c10 -11 16 -20 13 -20 -3 0
-13 9 -23 20 -10 11 -16 20 -13 20 3 0 13 -9 23 -20z m-1855 6 c0 -2 -8 -10
-17 -17 -16 -13 -17 -12 -4 4 13 16 21 21 21 13z m2493 -3 c-7 -2 -19 -2 -25
0 -7 3 -2 5 12 5 14 0 19 -2 13 -5z m-2618 -13 c3 -6 -1 -7 -9 -4 -18 7 -21
14 -7 14 6 0 13 -4 16 -10z m605 -11 c31 -16 38 -24 30 -34 -8 -10 -1 -12 32
-10 39 2 40 2 8 -4 -21 -4 -34 -11 -32 -19 1 -8 -2 -11 -8 -7 -5 3 -10 0 -10
-8 0 -8 -8 -21 -17 -28 -15 -12 -16 -12 -8 1 12 19 15 71 5 65 -5 -3 -11 -1
-15 5 -3 5 0 10 7 10 7 1 0 12 -17 25 -37 31 -28 32 25 4z m2093 14 c-7 -2
-19 -2 -25 0 -7 3 -2 5 12 5 14 0 19 -2 13 -5z m444 1 c-3 -3 -12 -4 -19 -1
-8 3 -5 6 6 6 11 1 17 -2 13 -5z m-2954 -11 c-7 -2 -19 -2 -25 0 -7 3 -2 5 12
5 14 0 19 -2 13 -5z m267 -8 c14 -8 21 -14 15 -14 -5 0 -21 6 -35 14 -14 8
-20 14 -15 14 6 0 21 -6 35 -14z m340 11 c0 -2 -8 -10 -17 -17 -16 -13 -17
-12 -4 4 13 16 21 21 21 13z m140 -47 c8 -31 8 -32 -5 -15 -8 10 -12 23 -9 27
3 5 0 9 -5 9 -6 0 -11 8 -11 17 0 26 19 2 30 -38z m1229 25 c14 -12 -19 -1
-35 12 -18 14 -18 14 6 3 14 -6 27 -13 29 -15z m608 20 c-3 -3 -12 -4 -19 -1
-8 3 -5 6 6 6 11 1 17 -2 13 -5z m290 0 c-3 -3 -12 -4 -19 -1 -8 3 -5 6 6 6
11 1 17 -2 13 -5z m-1036 -21 c13 -16 12 -17 -3 -4 -17 13 -22 21 -14 21 2 0
10 -8 17 -17z m917 10 c-21 -2 -57 -2 -80 0 -24 2 -7 4 37 4 44 0 63 -2 43 -4z
m-2992 -49 c-9 -8 -11 -9 -6 -2 6 7 11 21 11 33 1 18 2 18 6 1 3 -10 -2 -25
-11 -32z m97 39 c-7 -2 -19 -2 -25 0 -7 3 -2 5 12 5 14 0 19 -2 13 -5z m237
-3 c8 -5 11 -10 5 -10 -5 0 -17 5 -25 10 -8 5 -10 10 -5 10 6 0 17 -5 25 -10z
m405 0 c3 -5 -1 -10 -10 -10 -9 0 -13 5 -10 10 3 6 8 10 10 10 2 0 7 -4 10
-10z m135 7 c0 -2 -10 -12 -22 -23 l-23 -19 19 23 c18 21 26 27 26 19z m292
-54 c-27 -32 -61 -76 -76 -98 -14 -22 -26 -33 -26 -26 0 17 38 69 99 134 61
65 63 59 3 -10z m84 45 c4 -7 3 -10 -1 -5 -5 4 -25 -7 -44 -25 l-36 -33 34 38
c40 42 37 41 47 25z m134 8 c0 -2 -8 -10 -17 -17 -16 -13 -17 -12 -4 4 13 16
21 21 21 13z m-1553 -24 c9 -15 8 -19 -3 -19 -7 0 -11 4 -8 9 3 4 0 8 -5 8 -6
0 -11 5 -11 10 0 16 14 12 27 -8z m756 11 c-7 -2 -21 -2 -30 0 -10 3 -4 5 12
5 17 0 24 -2 18 -5z m1032 -50 c-18 -17 -18 -17 -6 0 11 14 11 20 0 35 -12 16
-12 16 6 0 19 -18 19 -18 0 -35z m-1566 24 c-9 -7 -18 -19 -22 -27 -4 -12 -6
-12 -6 2 -1 9 7 22 17 27 24 14 30 13 11 -2z m851 10 c0 -2 -10 -12 -22 -23
l-23 -19 19 23 c18 21 26 27 26 19z m360 0 c0 -2 -15 -16 -32 -33 l-33 -29 29
33 c28 30 36 37 36 29z m80 0 c0 -2 -10 -12 -22 -23 l-23 -19 19 23 c18 21 26
27 26 19z m174 -27 c-6 -6 -10 -3 -10 10 0 13 4 16 10 10 7 -7 7 -13 0 -20z
m1193 24 c-3 -3 -12 -4 -19 -1 -8 3 -5 6 6 6 11 1 17 -2 13 -5z m-2490 -10
c-3 -3 -12 -4 -19 -1 -8 3 -5 6 6 6 11 1 17 -2 13 -5z m50 0 c-3 -3 -12 -4
-19 -1 -8 3 -5 6 6 6 11 1 17 -2 13 -5z m1724 -11 c13 -16 12 -17 -3 -4 -17
13 -22 21 -14 21 2 0 10 -8 17 -17z m1176 11 c-3 -3 -12 -4 -19 -1 -8 3 -5 6
6 6 11 1 17 -2 13 -5z m-3351 -52 c14 -23 21 -42 16 -42 -5 0 -15 14 -22 31
-7 17 -20 38 -29 46 -9 10 -11 15 -3 12 7 -2 24 -23 38 -47z m369 38 c3 -5 1
-10 -4 -10 -6 0 -11 5 -11 10 0 6 2 10 4 10 3 0 8 -4 11 -10z m1610 -32 l40
-43 -45 40 c-25 22 -47 41 -49 43 -2 1 0 2 5 2 6 0 28 -19 49 -42z m1058 35
c-7 -2 -19 -2 -25 0 -7 3 -2 5 12 5 14 0 19 -2 13 -5z m234 1 c-3 -3 -12 -4
-19 -1 -8 3 -5 6 6 6 11 1 17 -2 13 -5z m-3187 -23 c0 -9 -69 -1 -74 8 -2 3
13 5 35 3 21 -2 39 -7 39 -11z m421 2 c13 -16 12 -17 -3 -4 -17 13 -22 21 -14
21 2 0 10 -8 17 -17z m609 14 c0 -2 -12 -14 -27 -28 l-28 -24 24 28 c23 25 31
32 31 24z m470 -1 c0 -2 -8 -10 -17 -17 -16 -13 -17 -12 -4 4 13 16 21 21 21
13z m1573 -3 c-7 -2 -19 -2 -25 0 -7 3 -2 5 12 5 14 0 19 -2 13 -5z m-2128
-13 c-3 -5 -12 -10 -18 -10 -7 0 -6 4 3 10 19 12 23 12 15 0z m645 6 c0 -2 -8
-10 -17 -17 -16 -13 -17 -12 -4 4 13 16 21 21 21 13z m-1483 -28 c-3 -8 -6 -5
-6 6 -1 11 2 17 5 13 3 -3 4 -12 1 -19z m473 -4 c0 -2 -9 0 -20 6 -11 6 -20
13 -20 16 0 2 9 0 20 -6 11 -6 20 -13 20 -16z m506 -8 c-3 -14 -7 -29 -7 -33
-2 -15 -42 -88 -51 -94 -5 -3 -8 -8 -6 -11 7 -11 -70 -85 -82 -78 -8 5 -4 9
10 13 12 3 19 10 16 15 -3 6 1 12 9 16 8 3 12 12 9 21 -3 8 -1 15 6 15 6 0 8
-5 4 -11 -4 -7 -1 -10 7 -7 8 3 15 10 15 16 1 7 3 15 4 20 1 4 2 11 1 15 -1 5
3 6 8 3 5 -3 12 1 15 10 8 21 -22 77 -36 68 -7 -4 -8 -3 -4 4 11 18 24 14 31
-8 11 -34 33 -24 31 14 -1 19 2 32 6 30 5 -3 8 0 8 7 0 7 3 10 6 6 4 -3 4 -18
0 -31z m604 30 c0 -2 -8 -10 -17 -17 -16 -13 -17 -12 -4 4 13 16 21 21 21 13z
m110 0 c0 -2 -8 -10 -17 -17 -16 -13 -17 -12 -4 4 13 16 21 21 21 13z m208
-21 c-3 -3 -9 2 -12 12 -6 14 -5 15 5 6 7 -7 10 -15 7 -18z m-1791 -3 c-13
-15 -14 -21 -4 -32 6 -8 3 -7 -9 3 -11 9 -24 14 -29 10 -4 -5 -5 -2 -1 5 4 7
11 10 16 7 4 -3 10 2 14 10 3 8 11 15 17 15 8 0 6 -7 -4 -18z m587 3 c-4 -8
-8 -15 -10 -15 -2 0 -4 7 -4 15 0 8 4 15 10 15 5 0 7 -7 4 -15z m89 8 c-7 -2
-19 -2 -25 0 -7 3 -2 5 12 5 14 0 19 -2 13 -5z m351 -18 c-9 -14 -18 -25 -21
-25 -5 0 5 18 20 38 17 22 18 13 1 -13z m-1239 5 c-3 -5 -14 -10 -23 -9 -14 0
-13 2 3 9 27 11 27 11 20 0z m1445 7 c0 -2 -17 -19 -37 -38 l-38 -34 34 38
c33 34 41 42 41 34z m90 -10 c0 -2 -17 -19 -37 -38 l-38 -34 34 38 c33 34 41
42 41 34z m1327 -3 c-3 -3 -12 -4 -19 -1 -8 3 -5 6 6 6 11 1 17 -2 13 -5z
m-2558 -27 c0 -9 -2 -8 -6 1 -2 6 -10 9 -15 6 -7 -4 -8 -2 -4 5 9 13 26 5 25
-12z m369 16 c-10 -2 -26 -2 -35 0 -10 3 -2 5 17 5 19 0 27 -2 18 -5z m265 0
c-7 -2 -19 -2 -25 0 -7 3 -2 5 12 5 14 0 19 -2 13 -5z m748 -10 c13 -16 12
-17 -3 -4 -17 13 -22 21 -14 21 2 0 10 -8 17 -17z m214 -93 c60 -60 107 -110
105 -110 -3 0 -55 50 -115 110 -60 61 -107 110 -105 110 3 0 55 -49 115 -110z
m345 84 c0 -2 -9 0 -20 6 -11 6 -20 13 -20 16 0 2 9 0 20 -6 11 -6 20 -13 20
-16z m690 11 c0 -8 -2 -15 -4 -15 -2 0 -6 7 -10 15 -3 8 -1 15 4 15 6 0 10 -7
10 -15z m267 9 c-3 -3 -12 -4 -19 -1 -8 3 -5 6 6 6 11 1 17 -2 13 -5z m-3122
-13 c3 -5 0 -13 -6 -17 -7 -4 -9 -3 -5 4 3 5 0 13 -6 15 -9 4 -10 6 -1 6 6 1
14 -3 18 -8z m65 -6 c-6 -8 -8 -20 -4 -27 5 -10 4 -10 -6 -1 -11 10 -11 15 0
28 7 8 15 15 17 15 3 0 0 -7 -7 -15z m264 6 c4 -5 -3 -7 -14 -4 -23 6 -26 13
-6 13 8 0 17 -4 20 -9z m131 -45 c6 -4 1 -4 -10 2 -11 6 -29 21 -40 34 -19 22
-19 22 10 -2 17 -14 35 -29 40 -34z m2503 47 c-10 -2 -26 -2 -35 0 -10 3 -2 5
17 5 19 0 27 -2 18 -5z m65 0 c-7 -2 -21 -2 -30 0 -10 3 -4 5 12 5 17 0 24 -2
18 -5z m-3315 -10 c-16 -2 -28 -9 -28 -14 0 -6 5 -7 12 -3 7 4 8 3 4 -5 -6 -9
-11 -9 -22 0 -20 17 -7 29 29 28 30 -2 31 -2 5 -6z m1002 -1 c0 -5 -7 -17 -15
-28 -14 -18 -14 -17 -4 9 12 27 19 34 19 19z m183 -7 c-3 -9 -8 -14 -10 -11
-3 3 -2 9 2 15 9 16 15 13 8 -4z m-1033 -10 c0 -8 -2 -15 -4 -15 -2 0 -6 7
-10 15 -3 8 -1 15 4 15 6 0 10 -7 10 -15z m1675 -17 l30 -33 -30 27 -30 28
-70 -68 -70 -67 70 73 c38 39 70 72 70 72 1 0 14 -15 30 -32z m340 12 c10 -11
16 -20 13 -20 -3 0 -13 9 -23 20 -10 11 -16 20 -13 20 3 0 13 -9 23 -20z
m-1658 -12 c-3 -8 -6 -5 -6 6 -1 11 2 17 5 13 3 -3 4 -12 1 -19z m610 -10 c-3
-8 -6 -5 -6 6 -1 11 2 17 5 13 3 -3 4 -12 1 -19z m57 -25 c-10 -7 -23 -13 -28
-12 -6 0 -1 5 12 11 12 6 22 18 23 27 0 13 2 13 6 2 3 -8 -2 -20 -13 -28z
m1863 31 c-3 -3 -12 -4 -19 -1 -8 3 -5 6 6 6 11 1 17 -2 13 -5z m-2885 -23
c-4 -10 -7 -11 -10 -3 -3 10 -7 10 -20 0 -15 -11 -15 -11 -5 3 16 20 43 21 35
0z m405 -3 c-3 -8 -6 -5 -6 6 -1 11 2 17 5 13 3 -3 4 -12 1 -19z m1103 19 c0
-2 -10 -12 -22 -23 l-23 -19 19 23 c18 21 26 27 26 19z m-1360 -38 c0 -5 -5
-9 -12 -9 -6 0 -8 3 -5 7 4 3 1 13 -6 22 -11 14 -10 14 6 2 9 -7 17 -17 17
-22z m105 11 c10 -11 16 -20 13 -20 -3 0 -13 9 -23 20 -10 11 -16 20 -13 20 3
0 13 -9 23 -20z m1585 -15 c19 -19 32 -35 29 -35 -3 0 -20 16 -39 35 -19 19
-32 35 -29 35 3 0 20 -16 39 -35z m-649 -12 c-7 -13 -10 -14 -11 -4 0 11 -4
10 -15 -5 -13 -16 -13 -14 0 15 11 22 20 30 27 23 7 -7 7 -16 -1 -29z m-1081
23 c0 -11 -19 -15 -25 -6 -3 5 1 10 9 10 9 0 16 -2 16 -4z m1570 1 c0 -1 -28
-29 -62 -62 l-63 -60 60 63 c55 58 65 67 65 59z m100 0 c0 -2 -10 -12 -22 -23
l-23 -19 19 23 c18 21 26 27 26 19z m1197 -19 c-3 -8 -6 -5 -6 6 -1 11 2 17 5
13 3 -3 4 -12 1 -19z m-3070 6 c-3 -3 -12 -4 -19 -1 -8 3 -5 6 6 6 11 1 17 -2
13 -5z m72 -21 c-8 -9 -16 -10 -22 -4 -13 13 0 31 19 24 11 -4 12 -8 3 -20z
m-79 -3 c0 -5 -2 -10 -4 -10 -3 0 -8 5 -11 10 -3 6 -1 10 4 10 6 0 11 -4 11
-10z m667 4 c-3 -3 -12 -4 -19 -1 -8 3 -5 6 6 6 11 1 17 -2 13 -5z m314 -41
l24 -28 -26 22 c-20 19 -28 20 -39 10 -12 -10 -12 -9 -1 6 7 9 14 17 15 17 2
0 13 -12 27 -27z m-720 0 c13 -16 12 -17 -3 -4 -10 7 -18 15 -18 17 0 8 8 3
21 -13z m794 -3 c3 -5 1 -10 -4 -10 -6 0 -11 5 -11 10 0 6 2 10 4 10 3 0 8 -4
11 -10z m362 -12 c-3 -8 -6 -5 -6 6 -1 11 2 17 5 13 3 -3 4 -12 1 -19z m60 0
c-3 -8 -6 -5 -6 6 -1 11 2 17 5 13 3 -3 4 -12 1 -19z m423 -3 c13 -14 21 -25
18 -25 -2 0 -15 11 -28 25 -13 14 -21 25 -18 25 2 0 15 -11 28 -25z m-1548 8
c-22 -4 -23 -6 -7 -23 13 -14 14 -20 3 -26 -7 -4 -10 -3 -5 1 4 5 -3 19 -15
32 l-21 23 34 -1 c25 -1 28 -3 11 -6z m892 -20 c-14 -13 -27 -23 -29 -23 -3 0
0 10 6 23 6 12 19 23 29 23 16 0 15 -3 -6 -23z m776 2 c13 -14 21 -25 18 -25
-2 0 -15 11 -28 25 -13 14 -21 25 -18 25 2 0 15 -11 28 -25z m-1724 -3 c-3 -3
0 -12 6 -21 10 -13 10 -14 -2 -4 -16 15 -23 46 -8 37 5 -3 7 -9 4 -12z m379 0
c-3 -3 -11 0 -18 7 -9 10 -8 11 6 5 10 -3 15 -9 12 -12z m1141 -4 l19 -23 -23
19 c-22 19 -22 19 -50 -5 l-27 -24 24 28 c30 33 33 33 57 5z m-1375 -5 c13
-16 12 -17 -3 -4 -17 13 -22 21 -14 21 2 0 10 -8 17 -17z m649 -36 c0 -23 -8
-41 -25 -57 l-25 -23 1 34 c1 29 2 31 8 10 6 -21 8 -22 20 -7 7 9 11 29 9 46
-3 16 -1 30 4 30 4 0 8 -15 8 -33z m-705 14 c3 -5 2 -12 -3 -15 -5 -3 -9 1 -9
9 0 17 3 19 12 6z m722 -38 c-3 -10 -5 -2 -5 17 0 19 2 27 5 18 2 -10 2 -26 0
-35z m258 25 c6 -4 2 -8 -7 -8 -10 0 -18 7 -18 17 0 9 3 12 8 7 4 -5 12 -12
17 -16z m-335 1 c0 -5 -3 -9 -7 -10 -5 0 -20 -2 -35 -4 -25 -3 -36 4 -24 16 8
8 66 6 66 -2z m190 -4 c7 -9 8 -15 2 -15 -5 0 -12 7 -16 15 -3 8 -4 15 -2 15
2 0 9 -7 16 -15z m620 12 c0 -2 -12 -14 -27 -28 l-28 -24 24 28 c23 25 31 32
31 24z m-1508 -39 c-8 -8 -9 -4 -5 13 4 13 8 18 11 10 2 -7 -1 -18 -6 -23z
m159 15 c13 -16 12 -17 -3 -4 -17 13 -22 21 -14 21 2 0 10 -8 17 -17z m246 11
c-3 -3 -12 -4 -19 -1 -8 3 -5 6 6 6 11 1 17 -2 13 -5z m173 -14 c35 0 38 -2
32 -22 -5 -19 -7 -20 -10 -5 -3 13 -11 16 -38 13 -30 -4 -34 -2 -33 17 0 12 3
16 6 10 2 -7 22 -13 43 -13z m830 16 c0 -2 -8 -10 -17 -17 -16 -13 -17 -12 -4
4 13 16 21 21 21 13z m-1381 -38 c0 -18 -3 -27 -6 -20 -2 6 -8 10 -13 7 -4 -3
-3 6 3 20 15 32 17 31 16 -7z m1726 12 c10 -11 16 -20 13 -20 -3 0 -13 9 -23
20 -10 11 -16 20 -13 20 3 0 13 -9 23 -20z m-1634 -7 c13 -16 12 -17 -3 -4
-17 13 -22 21 -14 21 2 0 10 -8 17 -17z m1069 7 c0 -5 -8 -10 -17 -10 -15 0
-16 2 -3 10 19 12 20 12 20 0z m117 -12 c-3 -8 -6 -5 -6 6 -1 11 2 17 5 13 3
-3 4 -12 1 -19z m-640 -10 c-3 -8 -6 -5 -6 6 -1 11 2 17 5 13 3 -3 4 -12 1
-19z m984 5 c13 -16 12 -17 -3 -4 -17 13 -22 21 -14 21 2 0 10 -8 17 -17z
m-598 -30 c-13 -2 -35 -2 -50 0 -16 2 -5 4 22 4 28 0 40 -2 28 -4z m1127 -13
c0 -5 -2 -10 -4 -10 -3 0 -8 5 -11 10 -3 6 -1 10 4 10 6 0 11 -4 11 -10z
m-1643 -47 c-3 -10 -5 -2 -5 17 0 19 2 27 5 18 2 -10 2 -26 0 -35z m223 44 c0
-2 -15 -16 -32 -33 l-33 -29 29 33 c28 30 36 37 36 29z m83 -21 c-10 -13 -20
-22 -22 -20 -4 4 29 44 36 44 2 0 -4 -11 -14 -24z m668 -3 c13 -16 12 -17 -3
-4 -17 13 -22 21 -14 21 2 0 10 -8 17 -17z m-1284 -35 c-3 -8 -6 -5 -6 6 -1
11 2 17 5 13 3 -3 4 -12 1 -19z m80 -45 c-2 -16 -4 -5 -4 22 0 28 2 40 4 28 2
-13 2 -35 0 -50z m80 15 c-2 -13 -4 -5 -4 17 -1 22 1 32 4 23 2 -10 2 -28 0
-40z m130 26 c-3 -3 -12 -4 -19 -1 -8 3 -5 6 6 6 11 1 17 -2 13 -5z m440 0
c-3 -3 -12 -4 -19 -1 -8 3 -5 6 6 6 11 1 17 -2 13 -5z m86 -1 c-13 -2 -33 -2
-45 0 -13 2 -3 4 22 4 25 0 35 -2 23 -4z m357 -13 c0 -5 -7 -7 -15 -4 -8 4
-15 8 -15 10 0 2 7 4 15 4 8 0 15 -4 15 -10z m-650 -13 c0 -2 -15 -16 -32 -33
l-33 -29 29 33 c28 30 36 37 36 29z m-363 -49 c-3 -8 -6 -5 -6 6 -1 11 2 17 5
13 3 -3 4 -12 1 -19z m610 -15 c-20 -2 -52 -2 -70 0 -17 2 0 4 38 4 39 0 53
-2 32 -4z m-236 -60 c-12 -20 -14 -14 -5 12 4 9 9 14 11 11 3 -2 0 -13 -6 -23z"/>
<path d="M4355 3640 c10 -11 20 -20 23 -20 3 0 -3 9 -13 20 -10 11 -20 20 -23
20 -3 0 3 -9 13 -20z"/>
<path d="M3301 2830 c0 -8 4 -24 9 -35 5 -13 9 -14 9 -5 0 8 -4 24 -9 35 -5
13 -9 14 -9 5z"/>
<path d="M3298 2693 c7 -3 16 -2 19 1 4 3 -2 6 -13 5 -11 0 -14 -3 -6 -6z"/>
<path d="M3318 2643 c7 -3 16 -2 19 1 4 3 -2 6 -13 5 -11 0 -14 -3 -6 -6z"/>
<path d="M3348 2356 c-2 -20 0 -36 4 -36 13 0 21 51 10 62 -6 6 -11 -2 -14
-26z"/>
<path d="M3590 2350 c0 -11 4 -20 9 -20 5 0 7 9 4 20 -3 11 -7 20 -9 20 -2 0
-4 -9 -4 -20z"/>
<path d="M3310 2263 c0 -13 5 -23 10 -23 13 0 13 11 0 30 -8 12 -10 11 -10 -7z"/>
<path d="M3230 1995 c0 -8 8 -15 18 -14 10 0 12 3 4 6 -6 2 -10 9 -6 14 3 5 0
9 -5 9 -6 0 -11 -7 -11 -15z"/>
<path d="M3965 2730 c-8 -13 5 -13 25 0 13 8 13 10 -2 10 -9 0 -20 -4 -23 -10z"/>
<path d="M3700 2702 c-8 -18 -8 -23 2 -19 7 2 12 10 10 17 -2 8 3 10 13 6 9
-3 13 -2 10 3 -3 5 3 12 12 14 10 3 6 4 -9 4 -18 -1 -30 -9 -38 -25z"/>
<path d="M3760 2694 c0 -8 5 -12 10 -9 6 3 10 10 10 16 0 5 -4 9 -10 9 -5 0
-10 -7 -10 -16z"/>
<path d="M1990 2870 c0 -11 6 -20 13 -20 22 0 27 11 12 26 -19 19 -25 18 -25
-6z"/>
<path d="M965 2840 c3 -5 10 -10 16 -10 5 0 9 5 9 10 0 6 -7 10 -16 10 -8 0
-12 -4 -9 -10z"/>
<path d="M1006 2813 c-6 -14 -5 -15 5 -6 7 7 10 15 7 18 -3 3 -9 -2 -12 -12z"/>
<path d="M968 2793 c7 -3 16 -2 19 1 4 3 -2 6 -13 5 -11 0 -14 -3 -6 -6z"/>
<path d="M3159 2209 c-1 -8 0 -18 1 -24 1 -5 3 -14 4 -20 1 -5 8 -21 15 -33
l13 -24 24 23 c23 22 34 46 15 34 -6 -3 -14 3 -20 12 -6 11 -11 13 -12 6 -1
-7 -2 -17 -3 -22 0 -5 -4 -12 -8 -15 -5 -3 -6 -3 -3 1 3 3 -1 13 -8 21 -9 13
-9 14 1 8 16 -10 15 4 -3 28 -11 15 -15 16 -16 5z m46 -77 c-17 -15 -18 -15
-6 0 7 9 9 23 5 30 -6 10 -4 11 7 0 11 -10 10 -15 -6 -30z"/>
<path d="M4539 2507 c0 -1 -2 -10 -4 -20 -3 -15 -1 -16 13 -5 9 7 18 13 20 14
2 1 -4 4 -13 7 -8 4 -15 5 -16 4z"/>
<path d="M4460 2309 c0 -5 5 -7 10 -4 6 3 10 8 10 11 0 2 -4 4 -10 4 -5 0 -10
-5 -10 -11z"/>
<path d="M4456 2243 c-6 -14 -5 -15 5 -6 7 7 10 15 7 18 -3 3 -9 -2 -12 -12z"/>
<path d="M4357 1982 c-15 -17 -15 -18 8 -18 17 0 21 3 15 11 -6 7 -7 15 -3 18
3 4 4 7 1 7 -3 0 -12 -8 -21 -18z"/>
<path d="M1482 2352 c4 -19 58 -23 58 -5 0 14 -1 14 -38 18 -16 2 -22 -2 -20
-13z"/>
<path d="M1710 2335 c0 -35 1 -36 33 -33 28 3 32 6 32 33 0 27 -4 30 -32 33
-32 3 -33 2 -33 -33z"/>
<path d="M1250 2245 c0 -9 9 -15 25 -15 16 0 25 6 25 15 0 9 -9 15 -25 15 -16
0 -25 -6 -25 -15z"/>
<path d="M1484 2013 c-8 -8 -14 -16 -14 -18 0 -7 40 8 50 19 14 18 -18 17 -36
-1z"/>
<path d="M2241 2294 c0 -11 3 -14 6 -6 3 7 2 16 -1 19 -3 4 -6 -2 -5 -13z"/>
<path d="M2261 2294 c0 -11 3 -14 6 -6 3 7 2 16 -1 19 -3 4 -6 -2 -5 -13z"/>
<path d="M748 2313 c18 -2 45 -2 60 0 15 2 0 4 -33 4 -33 0 -45 -2 -27 -4z"/>
<path d="M720 2270 c0 -28 2 -30 40 -30 29 0 40 4 40 15 0 18 16 20 23 3 3 -7
6 -1 6 15 1 26 0 27 -54 27 -54 0 -55 0 -55 -30z m17 -12 c-3 -7 -5 -2 -5 12
0 14 2 19 5 13 2 -7 2 -19 0 -25z"/>
<path d="M3695 1973 c3 -8 5 -18 5 -21 0 -8 20 20 20 29 0 3 -7 6 -15 6 -10 0
-14 -6 -10 -14z"/>
<path d="M1990 1775 l0 -55 50 0 50 0 0 55 0 55 -50 0 -50 0 0 -55z m90 35 c0
-6 -11 -10 -25 -10 -14 0 -25 4 -25 8 0 4 11 9 25 10 14 1 25 -3 25 -8z m-7
-27 c-7 -2 -21 -2 -30 0 -10 3 -4 5 12 5 17 0 24 -2 18 -5z m7 -23 c0 -5 -18
-9 -40 -8 -21 1 -37 5 -34 10 7 11 74 10 74 -2z m-7 -27 c-7 -2 -21 -2 -30 0
-10 3 -4 5 12 5 17 0 24 -2 18 -5z"/>
<path d="M4155 1770 c-4 -6 -10 -8 -15 -5 -5 3 -12 0 -16 -6 -4 -8 -3 -9 4 -5
16 10 15 -7 0 -23 -11 -11 -9 -11 10 -1 13 6 21 14 18 17 -3 4 -1 12 5 20 6 7
9 13 6 13 -3 0 -9 -5 -12 -10z"/>
</g>
</svg>
